<svg xmlns="http://www.w3.org/2000/svg" xmlns:xlink="http://www.w3.org/1999/xlink" id="Layer_1" x="0px" y="0px" viewBox="0 0 1540.5 1003.4" style="enable-background:new 0 0 1540.5 1003.4;" xml:space="preserve">
<style type="text/css">
	.st0{display:none;}
	.st1{display:inline;fill:#0A0A0A;}
	.st2{display:inline;}
	.st3{fill:#0A0A0A;}
	.st4{fill:none;}
	.st5{fill:#FFFFFF;}
</style>
<g id="Layer_1_00000050648705661335505410000016635553091397093521_" class="st0">
</g>
<g id="Layer_2_00000183944951421679871920000009539150914830612098_" class="st0">
	<path class="st1" d="M1057.7,52.7l-2.7-25.3c-0.6-5.9-5.5-10.3-11.4-10.3h-6.6v-3.3h2.5c0.6,0,1.1,0.3,1.5,0.8   c0.5,0.7,1.2,1.1,2,1.1c0.5,0,1-0.1,1.4-0.4c1.1-0.8,1.4-2.3,0.6-3.4c-1.2-1.8-3.3-2.9-5.5-2.9h-19.1c-2.2,0-4.2,1.1-5.5,2.9   c-0.8,1.1-0.5,2.6,0.6,3.4c1.1,0.8,2.6,0.5,3.4-0.6c0.3-0.5,0.9-0.8,1.5-0.8h2.5v3.3h-6.6c-5.9,0-10.8,4.4-11.4,10.3l-2.7,25.3   c-0.1,1.4,0,2.8,0.3,4.2l2.7,9.9c1.1,4,4.2,7.1,8.1,8.1l-2.7,7.8c-0.4,1.3,0.2,2.7,1.5,3.1c0.3,0.1,0.5,0.1,0.8,0.1   c1,0,1.9-0.6,2.3-1.6l3.2-9h23.3l3.2,9c0.4,1,1.3,1.6,2.3,1.6c0.3,0,0.5,0,0.8-0.1c1.3-0.4,1.9-1.8,1.5-3.1l-2.7-7.8   c3.9-1.1,7-4.1,8.1-8.1l2.7-10C1057.7,55.5,1057.8,54.1,1057.7,52.7L1057.7,52.7z M1027.7,13.9h4.4v3.3h-4.4V13.9z M1022.5,65.2   c0,0.6-0.5,1.1-1.1,1.1h-7.6c-0.5,0-0.9-0.4-1-0.9l-0.9-4.3c-0.1-0.3,0-0.6,0.2-0.9c0.2-0.2,0.5-0.4,0.8-0.4h8.5   c0.6,0,1.1,0.5,1.1,1.1V65.2z M1048,61.1l-0.9,4.3c-0.1,0.5-0.5,0.9-1,0.9h-7.6c-0.6,0-1.1-0.5-1.1-1.1v-4.3c0-0.6,0.5-1.1,1.1-1.1   h8.5c0.3,0,0.6,0.1,0.8,0.4C1047.9,60.5,1048,60.8,1048,61.1L1048,61.1z M1009.7,49.2l1.6-15c0.5-4.3,4.1-7.6,8.5-7.6h20.3   c4.4,0,8,3.3,8.5,7.6l1.6,15H1009.7z"></path>
	<path class="st1" d="M1514.8,46.8c-0.4-0.5-1-0.8-1.6-0.8h-7.8c-1.9-5.1-4.4-10.1-7.3-11.9c-9.9-6.5-36.1-6.5-45.9,0   c-2.9,1.9-5.4,6.9-7.3,11.9h-7.8c-0.6,0-1.2,0.3-1.6,0.8s-0.5,1.1-0.4,1.7l1.2,5.6c0.2,1,1,1.6,2,1.6h2.3c-2.2,2.6-3.3,5.8-3.3,9.1   c0,4,1.5,7.6,4.3,10.2l0.1,0.1v7.8c0,1.7,1.4,3.1,3.1,3.1h7.2c1.7,0,3.1-1.4,3.1-3.1v-3.2h40.4v3.2c0,1.7,1.4,3.1,3.1,3.1h7.2   c1.7,0,3.1-1.4,3.1-3.1v-7.7c2.9-2.7,4.4-6.4,4.4-10.1c0-3.4-1.1-6.7-3.5-9.4h2.5c1,0,1.8-0.7,2-1.6l1.2-5.6   C1515.3,47.9,1515.2,47.2,1514.8,46.8L1514.8,46.8z M1455.5,39.2c7.9-5.2,31.3-5.2,39.2,0c1.5,1,3.5,5.1,5.3,10h-49.8   C1452,44.3,1454,40.2,1455.5,39.2L1455.5,39.2z M1446.3,65.5c0-3.3,2.7-6.1,6.1-6.1c3.3,0,6.1,2.7,6.1,6.1s-2.7,6.1-6.1,6.1   C1449,71.6,1446.3,68.9,1446.3,65.5L1446.3,65.5z M1497.9,71.6c-3.3,0-6.1-2.7-6.1-6.1c0-3.3,2.7-6.1,6.1-6.1s6.1,2.7,6.1,6.1   C1504,68.9,1501.3,71.6,1497.9,71.6L1497.9,71.6z"></path>
	<g class="st2">
		<path class="st3" d="M618,9c2.2,0,4.2,0.9,5.6,2.3c1.4,1.4,2.3,3.4,2.3,5.6c0,2.2-0.9,4.2-2.3,5.6c-1.4,1.4-3.4,2.3-5.6,2.3    c-2.2,0-4.2-0.9-5.6-2.3c-1.4-1.4-2.3-3.4-2.3-5.6c0-2.2,0.9-4.2,2.3-5.6C613.9,9.9,615.9,9,618,9z"></path>
		<path class="st3" d="M616.4,25.6c1.2,0.3,2.2,0.9,3,1.6c0.8,0.8,1.5,1.7,1.9,2.8l6.9,11.2l12.7,2.2c1.1,0.2,1.9,0.9,2.3,1.8    c0.4,0.9,0.5,2,0.4,3c0,0.2,0,0.3,0,0.5c-0.2,1.1-0.9,1.9-1.9,2.3c-0.8,0.3-1.8,0.4-2.7,0.3c-0.2,0-0.4,0-0.5-0.1l-13.3-2.3    c-0.3-0.1-0.7-0.2-1-0.4c-0.3-0.1-0.5-0.3-0.8-0.5s-0.6-0.5-0.9-0.7c-0.3-0.3-0.6-0.7-0.8-1l-2.1-3.4c-0.8,3.5-2,8.6-3.1,11.1    l7.3,6.2c0.3,0.3,0.7,0.6,0.9,1c0.2,0.3,0.5,0.6,0.7,1c0.3,0.3,0.5,0.6,0.6,1c0.2,0.4,0.3,0.8,0.3,1.2l1.2,15.5c0,0.2,0,0.4,0,0.6    c0,1-0.2,2.1-0.7,3c-0.3,0.6-0.8,1.2-1.4,1.5c-0.8,0.5-1.7,0.4-2.6,0.4c-0.9-0.1-1.8-0.3-2.6-0.8c-1-0.6-1.7-1.4-1.8-2.7    l-1.2-15.2l-7-6l-1.1,7.9c-0.1,0.4-0.2,0.8-0.3,1.2c-0.1,0.3-0.2,0.7-0.4,1c-0.1,0.3-0.2,0.5-0.3,0.7c-0.1,0.3-0.3,0.6-0.5,0.8    l-10.4,11.6c-0.1,0.1-0.3,0.3-0.4,0.4c-0.7,0.7-1.7,1.3-2.6,1.6c-1.1,0.3-2.3,0.2-3.2-0.6l0,0l-0.1-0.1l0,0    c-0.1,0-0.1-0.1-0.2-0.2c-0.8-0.9-1.6-2-1.8-3.1c-0.3-1.1-0.1-2.2,0.7-3.1L600,67.2l0.1-0.1l1.9-14c0.1-0.5,0.1-1.2,0.2-1.8    c0.1-1,0.1-1.9,0.3-2.6l3.2-12.4l-5.9,1.8l-5.4,11.7c-0.5,1.1-1.3,1.6-2.4,1.8c-1,0.2-2.2-0.1-3.2-0.4l0,0l0,0    c-0.1,0-0.1,0-0.2-0.1c-1-0.5-1.6-1.4-1.7-2.5c-0.1-0.9,0-1.8,0.4-2.7l0,0l0,0c0.1-0.1,0.1-0.3,0.2-0.5l5.7-12.2    c0.1-0.3,0.4-0.6,0.6-0.9c0.2-0.2,0.4-0.4,0.7-0.6c0.3-0.3,0.6-0.5,1-0.7s0.8-0.4,1.2-0.5l15.1-4.6c0.2-0.1,0.3-0.1,0.5-0.2l0,0    c0,0,0,0,0.1,0s0.2-0.1,0.4-0.1l0,0l0,0c0.1,0,0.2-0.1,0.4-0.1c0.1,0,0.2,0,0.3,0c0.5-0.1,1-0.1,1.5-0.1    C615.4,25.4,615.9,25.4,616.4,25.6z"></path>
	</g>
	<g class="st2">
		<line class="st4" x1="32.2" y1="129.1" x2="1575.7" y2="129.1"></line>
		<rect x="32.2" y="127.6" class="st3" width="1543.5" height="3"></rect>
	</g>
	<g class="st2">
		<line class="st4" x1="32.2" y1="256.5" x2="1575.7" y2="256.5"></line>
		<rect x="32.2" y="255" class="st3" width="1543.5" height="3"></rect>
	</g>
	<g class="st2">
		<line class="st4" x1="32.2" y1="379.9" x2="1575.7" y2="379.9"></line>
		<rect x="32.2" y="378.4" class="st3" width="1543.5" height="3"></rect>
	</g>
	<g class="st2">
		<line class="st4" x1="32.2" y1="505.3" x2="1575.7" y2="505.3"></line>
		<rect x="32.2" y="503.8" class="st3" width="1543.5" height="3"></rect>
	</g>
	<g class="st2">
		<line class="st4" x1="32.2" y1="629.7" x2="1575.7" y2="629.7"></line>
		<rect x="32.2" y="628.2" class="st3" width="1543.5" height="3"></rect>
	</g>
	<g class="st2">
		<line class="st4" x1="32.2" y1="753.1" x2="1575.7" y2="753.1"></line>
		<rect x="32.2" y="751.6" class="st3" width="1543.5" height="3"></rect>
	</g>
	<g class="st2">
		<line class="st4" x1="32.2" y1="878.5" x2="1575.7" y2="878.5"></line>
		<rect x="32.2" y="877" class="st3" width="1543.5" height="3"></rect>
	</g>
	<g class="st2">
		<line class="st4" x1="32.2" y1="1001.9" x2="1575.7" y2="1001.9"></line>
		<rect x="32.2" y="1000.4" class="st3" width="1543.5" height="3"></rect>
	</g>
</g>
<g id="Layer_4" class="st0">
	<g class="st2">
		<path class="st3" d="M59.3,244h-8.2v-28.5h-8.5l1.5-6.4h23v6.4h-7.8V244z"></path>
		<path class="st3" d="M74.8,236.5v7.5h-7.1v-23.6h7.1v3.9c1.1-3.2,4.7-4.6,7.8-4.3c-0.2,0.7-0.8,6-1,6.6    C76.4,226.4,74.8,230.1,74.8,236.5z"></path>
		<path class="st3" d="M96.1,220c6.8,0,10.7,3.4,11.6,4.2V244h-7.1v-4.2c-0.6,1.1-2.4,4.6-6.9,4.6c-6.2,0-10.1-4.7-10.1-11.8    C83.6,225.5,88.1,220,96.1,220z M95.6,238.5c3,0,5-2.9,5-8.6v-3.1c-0.6-0.4-2-1.1-4.2-1.1c-3.7,0-5.5,3.1-5.5,6.8    C90.9,235.8,92.2,238.5,95.6,238.5z"></path>
		<path class="st3" d="M140.8,230.6c0-3-0.8-4.7-3.1-4.7c-2.9,0-3.3,2.7-3.3,7.4V244h-7.2v-13.6c0-3-0.9-4.5-3.2-4.5    c-2.7,0-3.3,2.2-3.3,7.4V244h-7.1v-23.6h7.1v3.5c0.6-1.1,1.9-3.3,4.7-3.8c0.7-0.1,1.5-0.1,2.3,0c2.8,0.2,4.6,1.5,5.7,4.2    c1-1.9,3-4.4,6.7-4.4c5,0,8,2.9,8,10.1v13.9h-7.3L140.8,230.6L140.8,230.6z"></path>
		<path class="st3" d="M152.3,227.2h14.6v5.9h-14.6V227.2z"></path>
		<path class="st3" d="M183.7,215.1c-2.3,0-4.3,1.1-4.3,3.1c0,5.9,15.7,3.8,15.7,15.6c0,6.1-4.7,10.7-13,10.7    c-5.6,0-10.8-3-12.5-4.3l3.5-5.8c1.1,0.8,4.8,3.6,8.9,3.6c3,0,4.8-1.7,4.8-4c0-6.4-15.9-4.4-15.9-15.7c0-6,4.9-9.5,11.8-9.5    c5.9,0,9.4,2.2,10.2,2.8l-0.6,6.6C191.3,217.1,187.7,215.1,183.7,215.1z"></path>
		<path class="st3" d="M209.4,244.3c-6.4,0-8.5-2.9-8.5-9.3v-9h-4.4l1.4-5.5h3v-5l7.3-1.5v6.5h5.5v5.5h-5.5v9.1c0,2.5,0.5,3.4,2,3.6    c1.5,0.1,2.9,0,4.1-0.1l-1.3,5.6C212.5,244.1,211.6,244.3,209.4,244.3z"></path>
		<path class="st3" d="M228.4,220c6.8,0,10.7,3.4,11.6,4.2V244h-7.1v-4.2c-0.6,1.1-2.4,4.6-6.9,4.6c-6.2,0-10.1-4.7-10.1-11.8    C215.9,225.5,220.4,220,228.4,220z M227.9,238.5c3,0,5-2.9,5-8.6v-3.1c-0.6-0.4-2-1.1-4.2-1.1c-3.7,0-5.5,3.1-5.5,6.8    C223.3,235.8,224.5,238.5,227.9,238.5z"></path>
		<path class="st3" d="M256.3,244.3c-6.4,0-8.5-2.9-8.5-9.3v-9h-4.4l1.4-5.5h3v-5l7.3-1.5v6.5h5.5v5.5h-5.5v9.1c0,2.5,0.5,3.4,2,3.6    c1.5,0.1,2.9,0,4.1-0.1l-1.3,5.6C259.4,244.1,258.5,244.3,256.3,244.3z"></path>
		<path class="st3" d="M268.8,216.3c-2.3,0-4.1-1.3-4.1-3.4s1.8-3.4,4.1-3.4c2.3,0,4.1,1.2,4.1,3.4S271.1,216.3,268.8,216.3z     M265.2,220.4h7.3V244h-7.3V220.4z"></path>
		<path class="st3" d="M290.1,244.3c-7,0-12.7-4.4-12.7-12.1c0-7.8,5.6-12.2,12.7-12.2c7,0,12.6,4.4,12.6,12.3    C302.7,239.9,297.1,244.3,290.1,244.3z M290.1,225.7c-2.9,0-5.4,2.4-5.4,6.5c0,4.2,2.5,6.4,5.4,6.4c3,0,5.5-2.2,5.5-6.4    C295.5,228.1,293.1,225.7,290.1,225.7z"></path>
		<path class="st3" d="M323.1,231.2c0-3.4-1.1-5.3-3.8-5.3c-2.9,0-4.5,2.7-4.5,7.1v11h-7.2v-23.6h7.2v3.9c0.6-1,2.8-4.3,7-4.3    c5.7,0,8.6,3.4,8.6,10.6v13.3h-7.3L323.1,231.2L323.1,231.2z"></path>
		<path class="st3" d="M55.6,366.7H46v-34.8h8.3c8.4,0,14.2,2.4,14.2,9.1c0,2.9-1.8,5.5-4.1,6.1c4.1,1,7,3.7,7,8.9    C71.3,363.8,65.3,366.7,55.6,366.7z M54.3,337.9v7c5.2,0,6.6-1.1,6.6-3.4C60.9,338.8,59.1,337.9,54.3,337.9z M55.9,350.7h-1.6v9.7    h1.6c5.7,0,7.1-1.7,7.2-4.7C63.1,352.9,61.6,350.7,55.9,350.7z"></path>
		<path class="st3" d="M87.8,342.7c6.8,0,10.7,3.4,11.6,4.2v19.8h-7.2v-4.2c-0.6,1.1-2.4,4.6-6.9,4.6c-6.2,0-10.1-4.7-10.1-11.8    C75.3,348.2,79.8,342.7,87.8,342.7z M87.2,361.2c3,0,5-2.9,5-8.6v-3.1c-0.6-0.4-2-1.1-4.2-1.1c-3.7,0-5.5,3.1-5.5,6.8    C82.6,358.5,83.9,361.2,87.2,361.2z"></path>
		<path class="st3" d="M113.8,348.1c-1.2,0-2.4,0.5-2.4,1.6c0,3.3,11.8,1.9,11.8,9.8c0,4.6-4,7.6-9.6,7.6c-4.7,0-8.9-2.3-10.3-3.2    l3.4-4.8c0.7,0.5,3.9,2.5,6.8,2.5c1.7,0,2.5-0.8,2.5-1.9c0-3.5-11.6-2-11.6-10c0-4.4,3.4-6.9,9.1-6.9c4.2,0,7.6,1.6,8.3,2.1    l-1.1,5.2C119.6,349.3,116.4,348.1,113.8,348.1z"></path>
		<path class="st3" d="M139.6,361.4c2.6,0,4.4-0.8,6.1-2.1l3.1,4.9c-3.4,2.3-6.6,2.8-9.4,2.8c-8,0-13-4.7-13-12.1    c0-7.3,5.1-12.2,11.8-12.2c6.2,0,11.1,4.2,11.1,11.2c0,1.4-0.2,2.8-0.2,2.8h-15.7C133.6,359.9,136.3,361.4,139.6,361.4z     M133.5,351.6h9.6c-0.4-2.5-2.1-4-4.7-4C135.9,347.6,134.1,349.2,133.5,351.6z"></path>
		<path class="st3" d="M154,332.8l7.2-1.5v35.4H154V332.8z"></path>
		<path class="st3" d="M191.5,337.8c-2.3,0-4.3,1.1-4.3,3.1c0,5.9,15.7,3.8,15.7,15.6c0,6.1-4.7,10.7-13,10.7    c-5.6,0-10.8-3-12.5-4.3l3.5-5.8c1.1,0.8,4.8,3.6,8.9,3.6c3,0,4.8-1.7,4.8-4c0-6.4-15.9-4.4-15.9-15.7c0-6,4.9-9.5,11.8-9.5    c5.9,0,9.4,2.2,10.2,2.8l-0.6,6.6C199.1,339.8,195.5,337.8,191.5,337.8z"></path>
		<path class="st3" d="M217.9,366.7h-9.7v-34.8h8.3c8.4,0,14.2,2.4,14.2,9.1c0,2.9-1.8,5.5-4.1,6.1c4.1,1,7,3.7,7,8.9    C233.6,363.8,227.6,366.7,217.9,366.7z M216.6,337.9v7c5.2,0,6.6-1.1,6.6-3.4C223.1,338.8,221.4,337.9,216.6,337.9z M218.2,350.7    h-1.6v9.7h1.6c5.7,0,7.1-1.7,7.2-4.7C225.4,352.9,223.9,350.7,218.2,350.7z"></path>
		<path class="st3" d="M249.1,366.7h-9.6v-34.8h8.3c8.4,0,14.2,2.4,14.2,9.1c0,2.9-1.8,5.5-4.1,6.1c4.1,1,7,3.7,7,8.9    C264.8,363.8,258.8,366.7,249.1,366.7z M247.8,337.9v7c5.2,0,6.6-1.1,6.6-3.4C254.3,338.8,252.6,337.9,247.8,337.9z M249.4,350.7    h-1.6v9.7h1.6c5.7,0,7.1-1.7,7.2-4.7C256.6,352.9,255.1,350.7,249.4,350.7z"></path>
		<path class="st3" d="M55.6,489.4H46v-34.8h8.3c8.4,0,14.2,2.4,14.2,9.1c0,2.9-1.8,5.5-4.1,6.1c4.1,1,7,3.7,7,8.9    C71.3,486.5,65.3,489.4,55.6,489.4z M54.3,460.6v7c5.2,0,6.6-1.1,6.6-3.4C60.9,461.5,59.1,460.6,54.3,460.6z M55.9,473.4h-1.6v9.7    h1.6c5.7,0,7.1-1.7,7.2-4.7C63.1,475.6,61.6,473.4,55.9,473.4z"></path>
		<path class="st3" d="M87.8,465.5c6.8,0,10.7,3.4,11.6,4.2v19.8h-7.2v-4.3c-0.6,1.1-2.4,4.6-6.9,4.6c-6.2,0-10.1-4.7-10.1-11.8    C75.3,470.9,79.8,465.5,87.8,465.5z M87.2,483.9c3,0,5-2.9,5-8.6v-3.1c-0.6-0.4-2-1.1-4.2-1.1c-3.7,0-5.5,3.1-5.5,6.8    C82.6,481.3,83.9,483.9,87.2,483.9z"></path>
		<path class="st3" d="M112.4,481.9v7.5h-7.2v-23.6h7.1v3.9c1.1-3.2,4.7-4.6,7.8-4.3c-0.2,0.7-0.8,6-1,6.6    C114,471.9,112.4,475.5,112.4,481.9z"></path>
		<path class="st3" d="M135.2,459.8c-1.9,0-2.8,0.9-2.8,3.3v2.7h4.9v5.4h-4.9v18.2h-7.2v-18.2h-4.4l1.4-5.4h2.9v-2.7    c0-6.9,3.8-9,8.7-9c2.5,0,4.4,0.6,5.1,0.7l-1,5.4C137.5,460.1,136.4,459.8,135.2,459.8z"></path>
		<path class="st3" d="M148.9,478.7c0,3.4,0.9,5.3,3.7,5.3c2.9,0,4.4-2.6,4.4-7.1v-11.1h7.2v23.6H157v-3.8c-0.6,1-2.6,4.2-7,4.2    c-6.4,0-8.5-3.8-8.5-12.3v-11.7h7.3v12.9H148.9z M146.8,462.6c-2.3,0-4.1-1.3-4.1-3.4c0-2.2,1.8-3.4,4.1-3.4    c2.2,0,4.2,1.2,4.2,3.5C151,461.4,149.1,462.6,146.8,462.6z M158.2,462.6c-2.2,0-4.1-1.3-4.1-3.4c0-2.2,1.9-3.4,4.1-3.4    c2.4,0,4.2,1.2,4.2,3.5C162.4,461.4,160.6,462.6,158.2,462.6z"></path>
		<path class="st3" d="M178.7,470.8c-1.2,0-2.4,0.5-2.4,1.6c0,3.3,11.8,1.9,11.8,9.8c0,4.6-4,7.6-9.6,7.6c-4.7,0-8.9-2.3-10.3-3.2    l3.4-4.8c0.7,0.5,3.9,2.5,6.8,2.5c1.7,0,2.5-0.8,2.5-1.9c0-3.5-11.6-2-11.6-10c0-4.4,3.4-6.9,9.1-6.9c4.2,0,7.6,1.6,8.3,2.1    l-1.1,5.2C184.5,472,181.2,470.8,178.7,470.8z"></path>
		<path class="st3" d="M200.8,470.8c-1.2,0-2.4,0.5-2.4,1.6c0,3.3,11.8,1.9,11.8,9.8c0,4.6-4,7.6-9.6,7.6c-4.7,0-8.9-2.3-10.3-3.2    l3.4-4.8c0.7,0.5,3.9,2.5,6.8,2.5c1.7,0,2.5-0.8,2.5-1.9c0-3.5-11.6-2-11.6-10c0-4.4,3.4-6.9,9.1-6.9c4.2,0,7.6,1.6,8.3,2.1    l-1.1,5.2C206.6,472,203.3,470.8,200.8,470.8z"></path>
		<path class="st3" d="M226.6,484.1c2.6,0,4.4-0.8,6.1-2.1l3.1,4.9c-3.4,2.3-6.6,2.8-9.4,2.8c-8,0-13-4.7-13-12.1    c0-7.3,5.1-12.2,11.8-12.2c6.2,0,11.1,4.2,11.1,11.2c0,1.4-0.2,2.8-0.2,2.8h-15.7C220.6,482.6,223.3,484.1,226.6,484.1z     M220.4,474.3h9.6c-0.4-2.5-2.1-4-4.7-4C222.9,470.3,221.1,471.9,220.4,474.3z"></path>
		<path class="st3" d="M248.1,481.9v7.5H241v-23.6h7.1v3.9c1.1-3.2,4.7-4.6,7.8-4.3c-0.2,0.7-0.8,6-1,6.6    C249.7,471.9,248.1,475.5,248.1,481.9z"></path>
		<path class="st3" d="M283.2,477.2c0,6.9-4,12.5-11.1,12.5c-3,0-5.7-1.2-5.7-1.2v8.2l-7.1,1.5c-0.1,0,0-8.7,0-32.4h7.1v4.1    c0.6-1.3,2.5-4.5,6.9-4.5C279.5,465.5,283.2,470.2,283.2,477.2z M271.4,471.4c-3,0-5,2.9-5,8.5v2.9c0.7,0.3,2.1,1.2,4.3,1.2    c3.5,0,5.3-3.1,5.3-6.7C276,474,274.7,471.4,271.4,471.4z"></path>
		<path class="st3" d="M288.1,455.5l7.2-1.5v35.4h-7.2V455.5z"></path>
		<path class="st3" d="M312.6,465.5c6.8,0,10.7,3.4,11.6,4.2v19.8h-7.1v-4.3c-0.6,1.1-2.4,4.6-6.9,4.6c-6.2,0-10.1-4.7-10.1-11.8    S304.6,465.5,312.6,465.5z M312,483.9c3,0,5-2.9,5-8.6v-3.1c-0.6-0.4-2-1.1-4.2-1.1c-3.7,0-5.5,3.1-5.5,6.8    C307.4,481.3,308.7,483.9,312,483.9z"></path>
		<path class="st3" d="M340.4,489.7c-6.4,0-8.5-2.9-8.5-9.3v-9h-4.4l1.4-5.5h3v-5l7.3-1.5v6.5h5.5v5.5h-5.5v9.1c0,2.5,0.5,3.4,2,3.6    c1.5,0.1,2.9,0,4.1-0.1l-1.3,5.6C343.6,489.5,342.6,489.7,340.4,489.7z"></path>
		<path class="st3" d="M370.5,483.5l-1.5,5.9h-23l11.9-17.7h-10l1.5-5.9h20.3l-11.9,17.7H370.5z"></path>
		<path class="st3" d="M55.6,612.1H46v-34.8h8.3c8.4,0,14.2,2.4,14.2,9.1c0,2.9-1.8,5.5-4.1,6.1c4.1,1,7,3.7,7,8.9    C71.3,609.3,65.3,612.1,55.6,612.1z M54.3,583.3v7c5.2,0,6.6-1.1,6.6-3.4C60.9,584.2,59.1,583.3,54.3,583.3z M55.9,596.1h-1.6v9.7    h1.6c5.7,0,7.1-1.7,7.2-4.7C63.1,598.3,61.6,596.1,55.9,596.1z"></path>
		<path class="st3" d="M87.8,588.2c6.8,0,10.7,3.4,11.6,4.2v19.8h-7.2V608c-0.6,1.1-2.4,4.6-6.9,4.6c-6.2,0-10.1-4.7-10.1-11.8    C75.3,593.6,79.8,588.2,87.8,588.2z M87.2,606.6c3,0,5-2.9,5-8.6v-3.1c-0.6-0.4-2-1.1-4.2-1.1c-3.7,0-5.5,3.1-5.5,6.8    C82.6,604,83.9,606.6,87.2,606.6z"></path>
		<path class="st3" d="M120.7,601.2c0-4.4-0.3-7.2-3.8-7.2s-4.5,3.4-4.5,8.3v9.8h-7.2v-33.9l7.2-1.5v15.7c0.6-1,2.9-4.3,7.1-4.3    c7,0,8.5,4.3,8.5,13.9v10.1h-7.3V601.2z"></path>
		<path class="st3" d="M149,599.3c0-3.4-1.1-5.3-3.8-5.3c-2.9,0-4.5,2.7-4.5,7.1v11h-7.2v-23.6h7.2v3.9c0.6-1,2.8-4.3,7-4.3    c5.7,0,8.6,3.4,8.6,10.6V612H149L149,599.3L149,599.3z"></path>
		<path class="st3" d="M177.4,601.2c0-4.4-0.3-7.2-3.8-7.2s-4.5,3.4-4.5,8.3v9.8h-7.2v-33.9l7.2-1.5v15.7c0.6-1,2.9-4.3,7.1-4.3    c7,0,8.5,4.3,8.5,13.9v10.1h-7.3L177.4,601.2L177.4,601.2z"></path>
		<path class="st3" d="M201.7,612.5c-7,0-12.7-4.4-12.7-12.1c0-7.8,5.6-12.2,12.7-12.2c7,0,12.6,4.4,12.6,12.3    C214.3,608.1,208.7,612.5,201.7,612.5z M201.7,593.8c-2.9,0-5.4,2.4-5.4,6.5c0,4.2,2.5,6.4,5.4,6.4c3,0,5.5-2.2,5.5-6.4    C207.1,596.3,204.7,593.8,201.7,593.8z"></path>
		<path class="st3" d="M230.8,582.5c-1.9,0-2.8,0.9-2.8,3.3v2.7h4.9v5.4H228v18.2h-7.2v-18.2h-4.4l1.4-5.4h2.9v-2.7    c0-6.9,3.8-9,8.7-9c2.5,0,4.4,0.6,5.1,0.7l-1,5.4C233.1,582.8,232.1,582.5,230.8,582.5z"></path>
		<path class="st3" d="M260,612.1h-9.6v-34.8h8.3c8.4,0,14.2,2.4,14.2,9.1c0,2.9-1.8,5.5-4.1,6.1c4.1,1,7,3.7,7,8.9    C275.7,609.3,269.7,612.1,260,612.1z M258.7,583.3v7c5.2,0,6.6-1.1,6.6-3.4C265.3,584.2,263.5,583.3,258.7,583.3z M260.3,596.1    h-1.6v9.7h1.6c5.7,0,7.1-1.7,7.2-4.7C267.5,598.3,266,596.1,260.3,596.1z"></path>
		<path class="st3" d="M292.2,588.2c6.8,0,10.7,3.4,11.6,4.2v19.8h-7.1V608c-0.6,1.1-2.4,4.6-6.9,4.6c-6.2,0-10.1-4.7-10.1-11.8    C279.7,593.6,284.1,588.2,292.2,588.2z M291.6,606.6c3,0,5-2.9,5-8.6v-3.1c-0.6-0.4-2-1.1-4.2-1.1c-3.7,0-5.5,3.1-5.5,6.8    C287,604,288.3,606.6,291.6,606.6z"></path>
		<path class="st3" d="M308.6,600.8c0-6.9,4.1-12.5,11.2-12.5c3,0,5.6,1.2,5.6,1.2v-11.2l7.2-1.5v35.4h-7.1v-4.1    c-0.6,1.3-2.6,4.5-6.9,4.5C312.4,612.5,308.6,607.8,308.6,600.8z M320.4,606.6c3,0,5.1-2.9,5.1-8.6v-2.9c-0.6-0.4-2-1.3-4.2-1.3    c-3.5,0-5.4,3.1-5.4,6.8C315.9,604,317.2,606.6,320.4,606.6z"></path>
		<path class="st3" d="M55.6,734.8H46V700h8.3c8.4,0,14.2,2.4,14.2,9.1c0,2.9-1.8,5.5-4.1,6.1c4.1,1,7,3.7,7,8.9    C71.3,732,65.3,734.8,55.6,734.8z M54.3,706v7c5.2,0,6.6-1.1,6.6-3.4C60.9,706.9,59.1,706,54.3,706z M55.9,718.8h-1.6v9.7h1.6    c5.7,0,7.1-1.7,7.2-4.7C63.1,721.1,61.6,718.8,55.9,718.8z"></path>
		<path class="st3" d="M87.8,710.9c6.8,0,10.7,3.4,11.6,4.2v19.8h-7.2v-4.2c-0.6,1.1-2.4,4.6-6.9,4.6c-6.2,0-10.1-4.7-10.1-11.8    C75.3,716.3,79.8,710.9,87.8,710.9z M87.2,729.3c3,0,5-2.9,5-8.6v-3.1c-0.6-0.4-2-1.1-4.2-1.1c-3.7,0-5.5,3.1-5.5,6.8    C82.6,726.7,83.9,729.3,87.2,729.3z"></path>
		<path class="st3" d="M113.8,716.2c-1.2,0-2.4,0.4-2.4,1.6c0,3.3,11.8,1.9,11.8,9.8c0,4.6-4,7.6-9.6,7.6c-4.7,0-8.9-2.3-10.3-3.2    l3.4-4.8c0.7,0.5,3.9,2.5,6.8,2.5c1.7,0,2.5-0.8,2.5-1.9c0-3.5-11.6-2-11.6-10c0-4.4,3.4-6.9,9.1-6.9c4.2,0,7.6,1.6,8.3,2.1    l-1.1,5.2C119.6,717.5,116.4,716.2,113.8,716.2z"></path>
		<path class="st3" d="M139.6,729.5c2.6,0,4.4-0.8,6.1-2.1l3.1,4.9c-3.4,2.3-6.6,2.8-9.4,2.8c-8,0-13-4.7-13-12.1    c0-7.3,5.1-12.2,11.8-12.2c6.2,0,11.1,4.2,11.1,11.2c0,1.4-0.2,2.8-0.2,2.8h-15.7C133.6,728,136.3,729.5,139.6,729.5z     M133.5,719.8h9.6c-0.4-2.5-2.1-4-4.7-4C135.9,715.7,134.1,717.3,133.5,719.8z"></path>
		<path class="st3" d="M154,700.9l7.2-1.5v35.4H154V700.9z"></path>
		<path class="st3" d="M209.6,699.6h1.1l6.4,35.2h-8.2l-3-18.2l-8.3,12.2l-8.4-12.2l-3,18.2H178l6.4-35.2h1.2l12,18L209.6,699.6z"></path>
		<path class="st3" d="M234.1,729.5c2.6,0,4.4-0.8,6.1-2.1l3.1,4.9c-3.4,2.3-6.6,2.8-9.4,2.8c-8,0-13-4.7-13-12.1    c0-7.3,5.1-12.2,11.8-12.2c6.2,0,11.1,4.2,11.1,11.2c0,1.4-0.2,2.8-0.2,2.8h-15.7C228.1,728,230.8,729.5,234.1,729.5z M228,719.8    h9.6c-0.4-2.5-2.1-4-4.7-4C230.4,715.7,228.6,717.3,228,719.8z"></path>
		<path class="st3" d="M257,716.2c-1.2,0-2.4,0.4-2.4,1.6c0,3.3,11.8,1.9,11.8,9.8c0,4.6-4,7.6-9.6,7.6c-4.7,0-8.9-2.3-10.3-3.2    l3.4-4.8c0.7,0.5,3.9,2.5,6.8,2.5c1.7,0,2.5-0.8,2.5-1.9c0-3.5-11.6-2-11.6-10c0-4.4,3.4-6.9,9.1-6.9c4.2,0,7.6,1.6,8.3,2.1    l-1.1,5.2C262.9,717.5,259.6,716.2,257,716.2z"></path>
		<path class="st3" d="M279.1,716.2c-1.2,0-2.4,0.4-2.4,1.6c0,3.3,11.8,1.9,11.8,9.8c0,4.6-4,7.6-9.6,7.6c-4.7,0-8.9-2.3-10.3-3.2    l3.4-4.8c0.7,0.5,3.9,2.5,6.8,2.5c1.7,0,2.5-0.8,2.5-1.9c0-3.5-11.6-2-11.6-10c0-4.4,3.4-6.9,9.1-6.9c4.2,0,7.6,1.6,8.3,2.1    l-1.1,5.2C285,717.5,281.7,716.2,279.1,716.2z"></path>
		<path class="st3" d="M305,729.5c2.6,0,4.4-0.8,6.1-2.1l3.1,4.9c-3.4,2.3-6.6,2.8-9.4,2.8c-8,0-13-4.7-13-12.1    c0-7.3,5.1-12.2,11.8-12.2c6.2,0,11.1,4.2,11.1,11.2c0,1.4-0.2,2.8-0.2,2.8h-15.7C299,728,301.7,729.5,305,729.5z M298.8,719.8    h9.6c-0.4-2.5-2.1-4-4.7-4C301.2,715.7,299.5,717.3,298.8,719.8z"></path>
		<path class="st3" d="M54.3,857.5H46v-34.9h20.4v6.4H54.3v6.5h8.4v6.5h-8.4L54.3,857.5L54.3,857.5z"></path>
		<path class="st3" d="M69.9,823.6l7.2-1.5v35.4h-7.2V823.6z"></path>
		<path class="st3" d="M90,846.9c0,3.4,0.9,5.3,3.7,5.3c2.9,0,4.4-2.6,4.4-7.1V834h7.2v23.6h-7.2v-3.8c-0.6,1-2.6,4.2-7,4.2    c-6.4,0-8.5-3.8-8.5-12.3V834h7.3v12.9H90z"></path>
		<path class="st3" d="M111.2,863l3.7-4.9c0.8,0.6,3.7,2.5,6.5,2.5c2.4,0,5.5-0.8,5.5-5.6v-2.9c-0.6,0.7-2.2,3.6-6.9,3.6    c-5.9,0-9.7-4.4-9.7-10.9c0-6.3,4.4-11.3,12.4-11.3c6.7,0,10.6,3.3,11.4,3.9v16c0,10.3-5.7,13-12.4,13    C116.7,866.4,112.7,864.1,111.2,863z M122,850.2c2.9,0,4.8-2.6,4.8-7v-3.1c-0.6-0.3-2-0.9-4.1-0.9c-3.4,0-5.2,2.6-5.2,5.7    C117.5,848,118.8,850.2,122,850.2z"></path>
		<path class="st3" d="M155.3,846.6c0-4.4-0.3-7.2-3.8-7.2s-4.5,3.4-4.5,8.3v9.8h-7.2v-33.9l7.2-1.5v15.7c0.6-1,2.9-4.3,7.1-4.3    c7,0,8.5,4.3,8.5,13.9v10.1h-7.3L155.3,846.6L155.3,846.6z"></path>
		<path class="st3" d="M179.4,833.6c6.8,0,10.7,3.4,11.6,4.2v19.8h-7.1v-4.2c-0.6,1.1-2.4,4.6-6.9,4.6c-6.2,0-10.1-4.7-10.1-11.8    C167,839,171.4,833.6,179.4,833.6z M178.9,852c3,0,5-2.9,5-8.6v-3.1c-0.6-0.4-2-1.1-4.2-1.1c-3.7,0-5.5,3.1-5.5,6.8    C174.3,849.4,175.6,852,178.9,852z"></path>
		<path class="st3" d="M208.6,827.9c-1.9,0-2.8,0.9-2.8,3.3v2.7h4.9v5.4h-4.9v18.2h-7.2v-18.2h-4.4l1.4-5.4h2.9v-2.7    c0-6.9,3.8-9,8.7-9c2.5,0,4.4,0.6,5.1,0.7l-1,5.4C210.9,828.2,209.8,827.9,208.6,827.9z"></path>
		<path class="st3" d="M225.1,852.3c2.6,0,4.4-0.8,6.1-2.1l3.1,4.9c-3.4,2.3-6.6,2.8-9.4,2.8c-8,0-13-4.7-13-12.1    c0-7.3,5.1-12.2,11.8-12.2c6.2,0,11.1,4.2,11.1,11.2c0,1.4-0.2,2.8-0.2,2.8h-15.7C219.1,850.7,221.8,852.3,225.1,852.3z     M219,842.5h9.6c-0.4-2.5-2.1-4-4.7-4C221.4,838.4,219.7,840,219,842.5z"></path>
		<path class="st3" d="M255,844.7c0-3.4-1.1-5.3-3.8-5.3c-2.9,0-4.5,2.7-4.5,7.1v11h-7.2v-23.6h7.2v3.9c0.6-1,2.8-4.3,7-4.3    c5.7,0,8.6,3.4,8.6,10.6v13.3H255L255,844.7L255,844.7z"></path>
		<path class="st3" d="M280.9,822.7H301v6.4h-11.8v6.5h8.7v6.5h-8.7v9.1h16.3l-1.5,6.5h-23.1L280.9,822.7L280.9,822.7z"></path>
		<path class="st3" d="M315.4,846.9c0,3.4,0.9,5.3,3.7,5.3c2.9,0,4.4-2.6,4.4-7.1V834h7.2v23.6h-7.2v-3.8c-0.6,1-2.6,4.2-7,4.2    c-6.4,0-8.5-3.8-8.5-12.3V834h7.3v12.9H315.4z"></path>
		<path class="st3" d="M343.8,850v7.5h-7.1v-23.6h7.1v3.9c1.1-3.2,4.7-4.6,7.8-4.3c-0.2,0.7-0.8,6-1,6.6    C345.4,840,343.8,843.7,343.8,850z"></path>
		<path class="st3" d="M365.2,857.9c-7,0-12.7-4.4-12.7-12.1c0-7.8,5.6-12.2,12.7-12.2c7,0,12.6,4.4,12.6,12.3    C377.8,853.5,372.3,857.9,365.2,857.9z M365.2,839.3c-2.9,0-5.4,2.4-5.4,6.5c0,4.2,2.5,6.4,5.4,6.4c3,0,5.5-2.2,5.5-6.4    C370.6,841.7,368.2,839.3,365.2,839.3z"></path>
		<path class="st3" d="M406.7,845.3c0,6.9-4,12.5-11.1,12.5c-3,0-5.7-1.2-5.7-1.2v8.2l-7.1,1.5c-0.1,0,0-8.7,0-32.4h7.1v4.1    c0.6-1.3,2.5-4.5,6.9-4.5C403,833.6,406.7,838.3,406.7,845.3z M394.8,839.5c-3,0-5,2.9-5,8.5v2.9c0.7,0.3,2.1,1.2,4.3,1.2    c3.5,0,5.3-3.1,5.3-6.7C399.4,842.1,398.1,839.5,394.8,839.5z"></path>
		<path class="st3" d="M423.1,857.9c-7,0-12.7-4.4-12.7-12.1c0-7.8,5.6-12.2,12.7-12.2c7,0,12.6,4.4,12.6,12.3    C435.7,853.5,430.2,857.9,423.1,857.9z M423.1,839.3c-2.9,0-5.4,2.4-5.4,6.5c0,4.2,2.5,6.4,5.4,6.4c3,0,5.5-2.2,5.5-6.4    C428.5,841.7,426.1,839.3,423.1,839.3z"></path>
		<path class="st3" d="M447.7,850v7.5h-7.1v-23.6h7.1v3.9c1.1-3.2,4.7-4.6,7.8-4.3c-0.2,0.7-0.8,6-1,6.6    C449.3,840,447.7,843.7,447.7,850z"></path>
		<path class="st3" d="M469.3,857.8c-6.4,0-8.5-2.9-8.5-9.3v-9h-4.4l1.4-5.5h3v-5l7.3-1.5v6.5h5.5v5.5h-5.5v9.1c0,2.5,0.5,3.4,2,3.6    c1.5,0.1,2.9,0,4.1-0.1l-1.3,5.6C472.4,857.7,471.4,857.8,469.3,857.8z"></path>
		<path class="st3" d="M70.4,980.2l-2.6-5.6H54l-2.5,5.6h-9.1l17.8-35.8h1.3l17.8,35.8H70.4z M56.3,968.7h9.1l-4.6-10.1L56.3,968.7z    "></path>
		<path class="st3" d="M88.5,969.6c0,3.4,0.9,5.3,3.7,5.3c2.9,0,4.4-2.6,4.4-7.1v-11.1h7.2v23.6h-7.2v-3.8c-0.6,1-2.6,4.2-7,4.2    c-6.4,0-8.5-3.8-8.5-12.3v-11.7h7.3v12.9H88.5z"></path>
		<path class="st3" d="M120.1,980.5c-6.4,0-8.5-2.9-8.5-9.3v-9h-4.4l1.4-5.5h3v-5l7.3-1.5v6.5h5.5v5.5h-5.5v9.1c0,2.5,0.5,3.4,2,3.6    c1.5,0.1,2.9,0,4.1-0.1l-1.3,5.6C123.2,980.4,122.3,980.5,120.1,980.5z"></path>
		<path class="st3" d="M139.3,980.6c-7,0-12.7-4.4-12.7-12.1c0-7.8,5.6-12.2,12.7-12.2c7,0,12.6,4.4,12.6,12.3    C151.9,976.2,146.3,980.6,139.3,980.6z M139.2,962c-2.9,0-5.4,2.4-5.4,6.5c0,4.2,2.5,6.4,5.4,6.4c3,0,5.5-2.2,5.5-6.4    C144.7,964.4,142.3,962,139.2,962z"></path>
		<path class="st3" d="M168.3,980.6c-6.9,0-10.9-3.4-11.6-4.1v-30l7.1-1.6V961c0.5-1.2,2.2-4.7,7-4.7c6,0,9.8,5.2,9.8,12.1    C180.7,975.2,176.4,980.6,168.3,980.6z M168.9,962c-3.1,0-5,3.1-5,8.2v3.6c0.6,0.4,2,1,4.3,1c3.5,0,5.3-3.1,5.3-6.6    C173.4,964.7,172.1,962,168.9,962z"></path>
		<path class="st3" d="M197.1,956.3c6.8,0,10.7,3.4,11.6,4.2v19.8h-7.1v-4.2c-0.6,1.1-2.4,4.6-6.9,4.6c-6.2,0-10.1-4.7-10.1-11.8    S189,956.3,197.1,956.3z M196.5,974.7c3,0,5-2.9,5-8.6V963c-0.6-0.4-2-1.1-4.2-1.1c-3.7,0-5.5,3.1-5.5,6.8    C191.9,972.1,193.2,974.7,196.5,974.7z"></path>
		<path class="st3" d="M230,969.3c0-4.4-0.3-7.2-3.8-7.2s-4.5,3.4-4.5,8.3v9.8h-7.2v-33.9l7.2-1.5v15.7c0.6-1,2.9-4.3,7.1-4.3    c7,0,8.5,4.3,8.5,13.9v10.1H230L230,969.3L230,969.3z"></path>
		<path class="st3" d="M258.2,967.4c0-3.4-1.1-5.3-3.8-5.3c-2.9,0-4.5,2.7-4.5,7.1v11h-7.2v-23.6h7.2v3.9c0.6-1,2.8-4.3,7-4.3    c5.7,0,8.6,3.4,8.6,10.6v13.3h-7.3V967.4z"></path>
		<path class="st3" d="M282.6,956.3c6.8,0,10.7,3.4,11.6,4.2v19.8h-7.1v-4.2c-0.6,1.1-2.4,4.6-6.9,4.6c-6.2,0-10.1-4.7-10.1-11.8    S274.5,956.3,282.6,956.3z M282,974.7c3,0,5-2.9,5-8.6V963c-0.6-0.4-2-1.1-4.2-1.1c-3.7,0-5.5,3.1-5.5,6.8    C277.4,972.1,278.7,974.7,282,974.7z"></path>
		<path class="st3" d="M315.5,967.4c0-3.4-1.1-5.3-3.8-5.3c-2.9,0-4.5,2.7-4.5,7.1v11H300v-23.6h7.2v3.9c0.6-1,2.8-4.3,7-4.3    c5.7,0,8.6,3.4,8.6,10.6v13.3h-7.3L315.5,967.4L315.5,967.4z"></path>
		<path class="st3" d="M336.9,961.6c-1.2,0-2.4,0.4-2.4,1.6c0,3.3,11.8,1.9,11.8,9.8c0,4.6-4,7.6-9.6,7.6c-4.7,0-8.9-2.3-10.3-3.2    l3.4-4.8c0.7,0.5,3.9,2.5,6.8,2.5c1.7,0,2.5-0.8,2.5-1.9c0-3.5-11.6-2-11.6-10c0-4.4,3.4-6.9,9.1-6.9c4.2,0,7.6,1.6,8.3,2.1    l-1.1,5.2C342.8,962.9,339.5,961.6,336.9,961.6z"></path>
		<path class="st3" d="M349.5,968.4c0-8,5.4-12.2,12.6-12.2c4.5,0,7.4,1.5,7.6,1.6l-0.6,5.7c0,0-2.6-1.7-6.1-1.7    c-3.3,0-6.4,2-6.4,6.5c0,4.4,3,6.5,6.3,6.5c3.2,0,5.5-1.9,5.6-2l2.8,5c-3,2-6.1,2.8-9.1,2.8C354.7,980.7,349.5,976.4,349.5,968.4z    "></path>
		<path class="st3" d="M390.5,969.3c0-4.4-0.3-7.2-3.8-7.2s-4.5,3.4-4.5,8.3v9.8H375v-33.9l7.2-1.5v15.7c0.6-1,2.9-4.3,7.1-4.3    c7,0,8.5,4.3,8.5,13.9v10.1h-7.3V969.3z"></path>
		<path class="st3" d="M403.2,946.3l7.2-1.5v35.4h-7.2V946.3z"></path>
		<path class="st3" d="M423.3,969.6c0,3.4,0.9,5.3,3.7,5.3c2.9,0,4.4-2.6,4.4-7.1v-11.1h7.2v23.6h-7.2v-3.8c-0.6,1-2.6,4.2-7,4.2    c-6.4,0-8.5-3.8-8.5-12.3v-11.7h7.3L423.3,969.6L423.3,969.6z"></path>
		<path class="st3" d="M453,961.6c-1.2,0-2.4,0.4-2.4,1.6c0,3.3,11.8,1.9,11.8,9.8c0,4.6-4,7.6-9.6,7.6c-4.7,0-8.9-2.3-10.3-3.2    l3.4-4.8c0.7,0.5,3.9,2.5,6.8,2.5c1.7,0,2.5-0.8,2.5-1.9c0-3.5-11.6-2-11.6-10c0-4.4,3.4-6.9,9.1-6.9c4.2,0,7.6,1.6,8.3,2.1    l-1.1,5.2C458.9,962.9,455.6,961.6,453,961.6z"></path>
		<path class="st3" d="M475.1,961.6c-1.2,0-2.4,0.4-2.4,1.6c0,3.3,11.8,1.9,11.8,9.8c0,4.6-4,7.6-9.6,7.6c-4.7,0-8.9-2.3-10.3-3.2    l3.4-4.8c0.7,0.5,3.9,2.5,6.8,2.5c1.7,0,2.5-0.8,2.5-1.9c0-3.5-11.6-2-11.6-10c0-4.4,3.4-6.9,9.1-6.9c4.2,0,7.6,1.6,8.3,2.1    l-1.1,5.2C480.9,962.9,477.7,961.6,475.1,961.6z"></path>
	</g>
	<g class="st2">
		<path class="st3" d="M544.4,217.8l-4.8,1.9l-1-6.9l11.4-4.1h2.8v35.2h-8.4V217.8z"></path>
		<path class="st3" d="M602,208.8h1.1l6.4,35.2h-8.2l-3-18.2L590,238l-8.4-12.2l-3,18.2h-8.2l6.4-35.2h1.2l12,18L602,208.8z"></path>
		<path class="st3" d="M618.1,216.3c-2.3,0-4.1-1.3-4.1-3.4s1.8-3.4,4.1-3.4s4.1,1.2,4.1,3.4S620.4,216.3,618.1,216.3z M614.5,220.4    h7.3V244h-7.3V220.4z"></path>
		<path class="st3" d="M643.3,231.2c0-3.4-1.1-5.3-3.8-5.3c-2.9,0-4.5,2.7-4.5,7.1v11h-7.2v-23.6h7.2v3.9c0.6-1,2.8-4.3,7-4.3    c5.7,0,8.6,3.4,8.6,10.6v13.3h-7.3V231.2z"></path>
		<path class="st3" d="M659.6,244.3c-2.8,0-4.9-1.5-4.9-4.2s2.1-4.1,4.9-4.1c2.8,0,5,1.4,5,4.2C664.6,242.8,662.4,244.3,659.6,244.3    z"></path>
		<path class="st3" d="M544.4,340.6l-4.8,1.9l-1-6.9l11.4-4.1h2.8v35.2h-8.4V340.6z"></path>
		<path class="st3" d="M559.1,341.2l-0.6-6.6c0.7-0.7,4.7-3.2,10.2-3.2c7.1,0,11.5,4,11.5,10.5c0,5.4-3.8,11.5-9.9,18.4h11.6    l-1.7,6.5h-22.3v-2c14.1-15.3,14.1-19.9,14.1-22.2c0-2.3-1.2-4.7-4.7-4.7C563.9,337.9,560.3,340.2,559.1,341.2z"></path>
		<path class="st3" d="M629,331.5h1.1l6.4,35.2h-8.2l-3-18.2l-8.3,12.2l-8.4-12.2l-3,18.2h-8.2l6.4-35.2h1.2l12,18L629,331.5z"></path>
		<path class="st3" d="M645.1,339c-2.3,0-4.1-1.3-4.1-3.4s1.8-3.4,4.1-3.4s4.1,1.2,4.1,3.4S647.4,339,645.1,339z M641.5,343.1h7.3    v23.6h-7.3V343.1z"></path>
		<path class="st3" d="M670.3,353.9c0-3.4-1.1-5.3-3.8-5.3c-2.9,0-4.5,2.7-4.5,7.1v11h-7.2v-23.6h7.2v3.9c0.6-1,2.8-4.3,7-4.3    c5.7,0,8.6,3.4,8.6,10.6v13.3h-7.3V353.9z"></path>
		<path class="st3" d="M686.6,367c-2.8,0-4.9-1.5-4.9-4.2s2.1-4.1,4.9-4.1c2.8,0,5,1.4,5,4.2C691.6,365.5,689.4,367,686.6,367z"></path>
		<path class="st3" d="M541.6,488.7l11-27.8h-14l1.5-6.4h22.4l-13,35.5L541.6,488.7z"></path>
		<path class="st3" d="M608.9,454.2h1.1l6.4,35.2h-8.2l-3-18.2l-8.3,12.2l-8.4-12.2l-3,18.2h-8.2l6.4-35.2h1.2l12,18L608.9,454.2z"></path>
		<path class="st3" d="M625,461.7c-2.3,0-4.1-1.3-4.1-3.4s1.8-3.4,4.1-3.4s4.1,1.2,4.1,3.4S627.3,461.7,625,461.7z M621.4,465.8h7.3    v23.6h-7.3V465.8z"></path>
		<path class="st3" d="M650.2,476.6c0-3.4-1.1-5.3-3.8-5.3c-2.9,0-4.5,2.7-4.5,7.1v11h-7.2v-23.6h7.2v3.9c0.6-1,2.8-4.3,7-4.3    c5.7,0,8.6,3.4,8.6,10.6v13.3h-7.3V476.6z"></path>
		<path class="st3" d="M666.6,489.7c-2.8,0-4.9-1.5-4.9-4.2s2.1-4.1,4.9-4.1c2.8,0,5,1.4,5,4.2C671.6,488.2,669.4,489.7,666.6,489.7    z"></path>
	</g>
	<g class="st2">
		<path class="st3" d="M974,355.2c0,7.4-5,12-14.2,12c-6.5,0-11.4-3.7-11.4-3.7l3.3-5.8c0,0,3.7,3,7.8,3c4.1,0,6-2.5,6-5.4    c0-5.6-6.1-6.7-12.7-5.3l-0.8-0.7l2.2-17.5h17.9l-1.5,6.4h-9.7l-0.8,5.9C968.8,343.6,974,347.6,974,355.2z"></path>
		<path class="st3" d="M1021.3,331.5h1.1l6.4,35.2h-8.2l-3-18.2l-8.3,12.2l-8.4-12.2l-3,18.2h-8.2l6.4-35.2h1.2l12,18L1021.3,331.5z    "></path>
		<path class="st3" d="M1037.4,339c-2.3,0-4.1-1.3-4.1-3.4s1.8-3.4,4.1-3.4c2.3,0,4.1,1.2,4.1,3.4S1039.7,339,1037.4,339z     M1033.8,343.1h7.3v23.6h-7.3V343.1z"></path>
		<path class="st3" d="M1062.6,353.9c0-3.4-1.1-5.3-3.8-5.3c-2.9,0-4.5,2.7-4.5,7.1v11h-7.2v-23.6h7.2v3.9c0.6-1,2.8-4.3,7-4.3    c5.7,0,8.6,3.4,8.6,10.6v13.3h-7.3L1062.6,353.9L1062.6,353.9z"></path>
		<path class="st3" d="M1078.9,367c-2.8,0-4.9-1.5-4.9-4.2s2.1-4.1,4.9-4.1s5,1.4,5,4.2C1083.9,365.5,1081.7,367,1078.9,367z"></path>
		<path class="st3" d="M962.3,489.7c-7.5,0-12.8-4.2-12.8-11c0-4.3,2.8-7.6,5.8-8.7c-2.2-1.2-4.2-3.7-4.2-7.1    c0-5.5,4.7-8.7,11.2-8.7s11.3,3.5,11.3,8.7c0,3.4-2.1,6-4.2,7.1c3.1,1.1,5.8,4.3,5.8,9.1C975.2,485.6,969.8,489.7,962.3,489.7z     M962.3,472.6c-2.6,0-4.8,1.9-4.8,5.5c0,3.7,2.1,5.5,4.8,5.5c2.7,0,4.9-1.6,4.9-5.5C967.1,474.5,965,472.6,962.3,472.6z     M962.3,460c-1.8-0.1-3.4,1.4-3.4,3.9s1.5,3.9,3.4,3.9s3.6-1.5,3.6-3.9S964.2,460,962.3,460z"></path>
		<path class="st3" d="M1022.8,454.2h1.1l6.4,35.2h-8.2l-3-18.2l-8.3,12.2l-8.4-12.2l-3,18.2h-8.2l6.4-35.2h1.2l12,18L1022.8,454.2z    "></path>
		<path class="st3" d="M1038.8,461.7c-2.3,0-4.1-1.3-4.1-3.4s1.8-3.4,4.1-3.4c2.3,0,4.1,1.2,4.1,3.4S1041.1,461.7,1038.8,461.7z     M1035.2,465.8h7.3v23.6h-7.3V465.8z"></path>
		<path class="st3" d="M1064,476.6c0-3.4-1.1-5.3-3.8-5.3c-2.9,0-4.5,2.7-4.5,7.1v11h-7.2v-23.6h7.2v3.9c0.6-1,2.8-4.3,7-4.3    c5.7,0,8.6,3.4,8.6,10.6v13.3h-7.3L1064,476.6L1064,476.6z"></path>
		<path class="st3" d="M1080.4,489.7c-2.8,0-4.9-1.5-4.9-4.2s2.1-4.1,4.9-4.1s5,1.4,5,4.2C1085.4,488.2,1083.2,489.7,1080.4,489.7z"></path>
		<path class="st3" d="M954.2,586l-4.8,1.9l-1-6.9l11.4-4.1h2.8v35.2h-8.4V586z"></path>
		<path class="st3" d="M981.4,612.5c-7.3,0-13-4.3-13-12.5c0-2.9,1-6.9,6.1-13.6l7.5-9.8l9.1,1.3l-9.3,10.7    c7.5,0,12.7,4.6,12.7,11.5C994.5,608.2,988.7,612.5,981.4,612.5z M981.4,593.6c-2.7,0-5,2.2-5,6.4c0,4.1,2.3,6.2,5,6.2    s4.9-2.1,4.9-6.2S984.1,593.6,981.4,593.6z"></path>
		<path class="st3" d="M1042,576.9h1.1l6.4,35.2h-8.2l-3-18.2l-8.3,12.2l-8.4-12.2l-3,18.2h-8.2l6.4-35.2h1.2l12,18L1042,576.9z"></path>
		<path class="st3" d="M1058.1,584.5c-2.3,0-4.1-1.3-4.1-3.4s1.8-3.4,4.1-3.4c2.3,0,4.1,1.2,4.1,3.4S1060.4,584.5,1058.1,584.5z     M1054.5,588.6h7.3v23.6h-7.3V588.6z"></path>
		<path class="st3" d="M1083.3,599.3c0-3.4-1.1-5.3-3.8-5.3c-2.9,0-4.5,2.7-4.5,7.1v11h-7.2v-23.6h7.2v3.9c0.6-1,2.8-4.3,7-4.3    c5.7,0,8.6,3.4,8.6,10.6V612h-7.3L1083.3,599.3L1083.3,599.3z"></path>
		<path class="st3" d="M1099.7,612.4c-2.8,0-4.9-1.5-4.9-4.2s2.1-4.1,4.9-4.1s5,1.4,5,4.2C1104.7,610.9,1102.5,612.4,1099.7,612.4z"></path>
		<path class="st3" d="M954.2,708.7l-4.8,1.9l-1-6.9l11.4-4.1h2.8v35.2h-8.4V708.7z"></path>
		<path class="st3" d="M981.4,735.2c-7.3,0-13-4.3-13-12.5c0-2.9,1-6.9,6.1-13.6l7.5-9.8l9.1,1.3l-9.3,10.7    c7.5,0,12.7,4.6,12.7,11.5C994.5,731,988.7,735.2,981.4,735.2z M981.4,716.3c-2.7,0-5,2.2-5,6.4c0,4.1,2.3,6.2,5,6.2    s4.9-2.1,4.9-6.2C986.3,718.6,984.1,716.3,981.4,716.3z"></path>
		<path class="st3" d="M1042,699.6h1.1l6.4,35.2h-8.2l-3-18.2l-8.3,12.2l-8.4-12.2l-3,18.2h-8.2l6.4-35.2h1.2l12,18L1042,699.6z"></path>
		<path class="st3" d="M1058.1,707.2c-2.3,0-4.1-1.3-4.1-3.4s1.8-3.4,4.1-3.4c2.3,0,4.1,1.2,4.1,3.4S1060.4,707.2,1058.1,707.2z     M1054.5,711.3h7.3v23.6h-7.3V711.3z"></path>
		<path class="st3" d="M1083.3,722c0-3.4-1.1-5.3-3.8-5.3c-2.9,0-4.5,2.7-4.5,7.1v11h-7.2v-23.6h7.2v3.9c0.6-1,2.8-4.3,7-4.3    c5.7,0,8.6,3.4,8.6,10.6v13.3h-7.3L1083.3,722L1083.3,722z"></path>
		<path class="st3" d="M1099.7,735.1c-2.8,0-4.9-1.5-4.9-4.2s2.1-4.1,4.9-4.1s5,1.4,5,4.2C1104.7,733.6,1102.5,735.1,1099.7,735.1z"></path>
		<path class="st3" d="M950,832l-0.6-6.6c0.7-0.7,4.7-3.2,10.2-3.2c7.1,0,11.5,4,11.5,10.5c0,5.4-3.8,11.5-9.9,18.4h11.6l-1.7,6.5    h-22.3v-2c14.1-15.3,14.1-19.9,14.1-22.2s-1.2-4.7-4.7-4.7C954.8,828.8,951.2,831,950,832z"></path>
		<path class="st3" d="M1001,846.1c0,7.4-5,12-14.2,12c-6.5,0-11.4-3.7-11.4-3.7l3.3-5.8c0,0,3.7,3,7.8,3c4.1,0,6-2.5,6-5.4    c0-5.6-6.1-6.7-12.7-5.3l-0.8-0.7l2.2-17.5h17.9l-1.5,6.4h-9.7l-0.8,5.9C995.8,834.4,1001,838.4,1001,846.1z"></path>
		<path class="st3" d="M1048.3,822.3h1.1l6.4,35.2h-8.2l-3-18.2l-8.3,12.2l-8.4-12.2l-3,18.2h-8.2l6.4-35.2h1.2l12,18L1048.3,822.3z    "></path>
		<path class="st3" d="M1064.4,829.9c-2.3,0-4.1-1.3-4.1-3.4s1.8-3.4,4.1-3.4c2.3,0,4.1,1.2,4.1,3.4S1066.7,829.9,1064.4,829.9z     M1060.8,834h7.3v23.6h-7.3V834z"></path>
		<path class="st3" d="M1089.6,844.7c0-3.4-1.1-5.3-3.8-5.3c-2.9,0-4.5,2.7-4.5,7.1v11h-7.2v-23.6h7.2v3.9c0.6-1,2.8-4.3,7-4.3    c5.7,0,8.6,3.4,8.6,10.6v13.3h-7.3L1089.6,844.7L1089.6,844.7z"></path>
		<path class="st3" d="M1105.9,857.8c-2.8,0-4.9-1.5-4.9-4.2s2.1-4.1,4.9-4.1s5,1.4,5,4.2C1110.9,856.3,1108.7,857.8,1105.9,857.8z"></path>
	</g>
	<g class="st2">
		<path class="st3" d="M1420,366.7h-8.3V360h-16.2v-2l17.9-26.1h6.7v21.9h5.2l-1.6,6.2h-3.7V366.7z M1404.6,353.8h7.2v-10.3    L1404.6,353.8z"></path>
		<path class="st3" d="M1471.7,331.5h1.1l6.4,35.2h-8.2l-3-18.2l-8.3,12.2l-8.4-12.2l-3,18.2h-8.2l6.4-35.2h1.2l12,18L1471.7,331.5z    "></path>
		<path class="st3" d="M1487.8,339c-2.3,0-4.1-1.3-4.1-3.4s1.8-3.4,4.1-3.4c2.3,0,4.1,1.2,4.1,3.4S1490.1,339,1487.8,339z     M1484.2,343.1h7.3v23.6h-7.3V343.1z"></path>
		<path class="st3" d="M1513,353.9c0-3.4-1.1-5.3-3.8-5.3c-2.9,0-4.5,2.7-4.5,7.1v11h-7.2v-23.6h7.2v3.9c0.6-1,2.8-4.3,7-4.3    c5.7,0,8.6,3.4,8.6,10.6v13.3h-7.3L1513,353.9L1513,353.9z"></path>
		<path class="st3" d="M1529.3,367c-2.8,0-4.9-1.5-4.9-4.2s2.1-4.1,4.9-4.1s5,1.4,5,4.2C1534.3,365.5,1532.2,367,1529.3,367z"></path>
		<path class="st3" d="M1410.2,489.8c-7.3,0-13-4.3-13-12.5c0-2.9,1-6.9,6.1-13.6l7.5-9.8l9.1,1.3l-9.3,10.7    c7.5,0,12.7,4.6,12.7,11.5C1423.2,485.5,1417.5,489.8,1410.2,489.8z M1410.1,470.9c-2.7,0-5,2.2-5,6.4c0,4.1,2.3,6.2,5,6.2    s4.9-2.1,4.9-6.2C1415.1,473.2,1412.8,470.9,1410.1,470.9z"></path>
		<path class="st3" d="M1470.8,454.2h1.1l6.4,35.2h-8.2l-3-18.2l-8.3,12.2l-8.4-12.2l-3,18.2h-8.2l6.4-35.2h1.2l12,18L1470.8,454.2z    "></path>
		<path class="st3" d="M1486.9,461.7c-2.3,0-4.1-1.3-4.1-3.4s1.8-3.4,4.1-3.4s4.1,1.2,4.1,3.4S1489.2,461.7,1486.9,461.7z     M1483.3,465.8h7.3v23.6h-7.3V465.8z"></path>
		<path class="st3" d="M1512.1,476.6c0-3.4-1.1-5.3-3.8-5.3c-2.9,0-4.5,2.7-4.5,7.1v11h-7.2v-23.6h7.2v3.9c0.6-1,2.8-4.3,7-4.3    c5.7,0,8.6,3.4,8.6,10.6v13.3h-7.3L1512.1,476.6L1512.1,476.6z"></path>
		<path class="st3" d="M1528.4,489.7c-2.8,0-4.9-1.5-4.9-4.2s2.1-4.1,4.9-4.1s5,1.4,5,4.2C1533.4,488.2,1531.3,489.7,1528.4,489.7z"></path>
		<path class="st3" d="M1401.8,586l-4.8,1.9l-1-6.9l11.4-4.1h2.8v35.2h-8.4V586z"></path>
		<path class="st3" d="M1420.7,586l-4.8,1.9l-1-6.9l11.4-4.1h2.8v35.2h-8.4V586z"></path>
		<path class="st3" d="M1478.3,576.9h1.1l6.4,35.2h-8.2l-3-18.2l-8.3,12.2l-8.4-12.2l-3,18.2h-8.2l6.4-35.2h1.2l12,18L1478.3,576.9z    "></path>
		<path class="st3" d="M1494.4,584.5c-2.3,0-4.1-1.3-4.1-3.4s1.8-3.4,4.1-3.4c2.3,0,4.1,1.2,4.1,3.4S1496.7,584.5,1494.4,584.5z     M1490.8,588.6h7.3v23.6h-7.3V588.6z"></path>
		<path class="st3" d="M1519.6,599.3c0-3.4-1.1-5.3-3.8-5.3c-2.9,0-4.5,2.7-4.5,7.1v11h-7.2v-23.6h7.2v3.9c0.6-1,2.8-4.3,7-4.3    c5.7,0,8.6,3.4,8.6,10.6V612h-7.3L1519.6,599.3L1519.6,599.3z"></path>
		<path class="st3" d="M1536,612.4c-2.8,0-4.9-1.5-4.9-4.2s2.1-4.1,4.9-4.1s5,1.4,5,4.2C1541,610.9,1538.8,612.4,1536,612.4z"></path>
		<path class="st3" d="M1401.8,708.7l-4.8,1.9l-1-6.9l11.4-4.1h2.8v35.2h-8.4V708.7z"></path>
		<path class="st3" d="M1429.7,735.2c-8.5,0-13.7-6.5-13.7-17.9c0-11.3,5.2-17.8,13.7-17.8s13.7,6.5,13.7,17.9    C1443.4,728.7,1438.2,735.2,1429.7,735.2z M1429.7,706c-3.2,0-5.3,4.2-5.3,11.4c0,7.3,2.1,11.4,5.3,11.4c3.3,0,5.3-4,5.3-11.3    C1435,710.2,1433,706,1429.7,706z"></path>
		<path class="st3" d="M1491,699.6h1.1l6.4,35.2h-8.2l-3-18.2l-8.3,12.2l-8.4-12.2l-3,18.2h-8.2l6.4-35.2h1.2l12,18L1491,699.6z"></path>
		<path class="st3" d="M1507.1,707.2c-2.3,0-4.1-1.3-4.1-3.4s1.8-3.4,4.1-3.4c2.3,0,4.1,1.2,4.1,3.4S1509.4,707.2,1507.1,707.2z     M1503.5,711.3h7.3v23.6h-7.3V711.3z"></path>
		<path class="st3" d="M1532.3,722c0-3.4-1.1-5.3-3.8-5.3c-2.9,0-4.5,2.7-4.5,7.1v11h-7.2v-23.6h7.2v3.9c0.6-1,2.8-4.3,7-4.3    c5.7,0,8.6,3.4,8.6,10.6v13.3h-7.3L1532.3,722L1532.3,722z"></path>
		<path class="st3" d="M1548.6,735.1c-2.8,0-4.9-1.5-4.9-4.2s2.1-4.1,4.9-4.1s5,1.4,5,4.2C1553.6,733.6,1551.4,735.1,1548.6,735.1z"></path>
		<path class="st3" d="M1401.8,831.4l-4.8,1.9l-1-6.9l11.4-4.1h2.8v35.2h-8.4V831.4z"></path>
		<path class="st3" d="M1429.4,835.4c6.6,0.9,10,4.7,10,10.5c0,7.2-5.2,12-13.3,12c-5.7,0-10.1-2.5-11.5-3.5l3.3-5.7    c1,0.7,3.5,2.8,7.1,2.8c3.9,0,6-2.6,6-5.4c0-5.1-5.2-6.6-10.5-5.6l-0.6-0.7c0.1,0.1,7.5-10.9,7.3-10.7h-10.4l1.6-6.4h19.5v1    L1429.4,835.4z"></path>
		<path class="st3" d="M1486.7,822.3h1.1l6.4,35.2h-8.2l-3-18.2l-8.3,12.2l-8.4-12.2l-3,18.2h-8.2l6.4-35.2h1.2l12,18L1486.7,822.3z    "></path>
		<path class="st3" d="M1502.7,829.9c-2.3,0-4.1-1.3-4.1-3.4s1.8-3.4,4.1-3.4c2.3,0,4.1,1.2,4.1,3.4S1505,829.9,1502.7,829.9z     M1499.1,834h7.3v23.6h-7.3V834z"></path>
		<path class="st3" d="M1527.9,844.7c0-3.4-1.1-5.3-3.8-5.3c-2.9,0-4.5,2.7-4.5,7.1v11h-7.2v-23.6h7.2v3.9c0.6-1,2.8-4.3,7-4.3    c5.7,0,8.6,3.4,8.6,10.6v13.3h-7.3L1527.9,844.7L1527.9,844.7z"></path>
		<path class="st3" d="M1544.3,857.8c-2.8,0-4.9-1.5-4.9-4.2s2.1-4.1,4.9-4.1s5,1.4,5,4.2C1549.3,856.3,1547.1,857.8,1544.3,857.8z"></path>
		<path class="st3" d="M1410.2,980.6c-7.3,0-13-4.3-13-12.5c0-2.9,1-6.9,6.1-13.6l7.5-9.8l9.1,1.3l-9.3,10.7    c7.5,0,12.7,4.6,12.7,11.5C1423.2,976.4,1417.5,980.6,1410.2,980.6z M1410.1,961.8c-2.7,0-5,2.2-5,6.4c0,4.1,2.3,6.2,5,6.2    s4.9-2.1,4.9-6.2C1415.1,964,1412.8,961.8,1410.1,961.8z"></path>
		<path class="st3" d="M1470.8,945.1h1.1l6.4,35.2h-8.2l-3-18.2l-8.3,12.2l-8.4-12.2l-3,18.2h-8.2l6.4-35.2h1.2l12,18L1470.8,945.1z    "></path>
		<path class="st3" d="M1486.9,952.6c-2.3,0-4.1-1.3-4.1-3.4s1.8-3.4,4.1-3.4s4.1,1.2,4.1,3.4S1489.2,952.6,1486.9,952.6z     M1483.3,956.7h7.3v23.6h-7.3V956.7z"></path>
		<path class="st3" d="M1512.1,967.4c0-3.4-1.1-5.3-3.8-5.3c-2.9,0-4.5,2.7-4.5,7.1v11h-7.2v-23.6h7.2v3.9c0.6-1,2.8-4.3,7-4.3    c5.7,0,8.6,3.4,8.6,10.6v13.3h-7.3L1512.1,967.4L1512.1,967.4z"></path>
		<path class="st3" d="M1528.4,980.5c-2.8,0-4.9-1.5-4.9-4.2s2.1-4.1,4.9-4.1s5,1.4,5,4.2C1533.4,979,1531.3,980.5,1528.4,980.5z"></path>
	</g>
	<g class="st2">
		<path class="st3" d="M58.2,86H46.6V45.2h11.6c17.8,0,25,9.1,25,20.4C83.2,76.8,75.9,86,58.2,86z M58.8,52.6h-2.5v25.8h2.5    c9.9,0,14.7-5.7,14.7-12.9S68.8,52.6,58.8,52.6z"></path>
		<path class="st3" d="M90,45.2h9.7V86H90V45.2z"></path>
		<path class="st3" d="M122,52.2c-2.7,0-5.1,1.2-5.1,3.7c0,6.9,18.4,4.4,18.4,18.2c0,7.2-5.5,12.5-15.2,12.5c-6.6,0-12.6-3.6-14.6-5    l4.1-6.8c1.2,0.9,5.7,4.2,10.5,4.2c3.5,0,5.6-2,5.6-4.7c0-7.4-18.5-5.2-18.5-18.4c0-7,5.8-11.1,13.7-11.1c6.9,0,11,2.6,12,3.3    l-0.7,7.8C130.8,54.5,126.6,52.2,122,52.2z"></path>
		<path class="st3" d="M157.1,86h-9.6V52.7h-9.9l1.8-7.5h26.9v7.5h-9.1L157.1,86L157.1,86z"></path>
		<path class="st3" d="M195.1,86l-3.1-6.6h-16.2l-3,6.6h-10.6L183,44.2h1.6L205.4,86H195.1z M178.6,72.5h10.6l-5.3-11.8L178.6,72.5z    "></path>
		<path class="st3" d="M219.8,63.3V86h-9.7V44.6h1.6l25.2,23.2V45.2h9.7v41.3H245L219.8,63.3z"></path>
		<path class="st3" d="M288.8,78.4L287,86h-36.2l21.3-33.3h-17.2l1.8-7.5h30.1l-21.2,33.2H288.8z"></path>
		<path class="st3" d="M293.7,45.2h23.5v7.5h-13.8v7.6h10.1v7.6h-10.1v10.6h19.1l-1.8,7.6h-27L293.7,45.2L293.7,45.2z"></path>
		<path class="st3" d="M337.2,63.3V86h-9.7V44.6h1.6l25.2,23.2V45.2h9.7v41.3h-1.6L337.2,63.3z"></path>
	</g>
</g>
<g id="Layer_5">
	<path class="st5" d="M1020.9,52.7l-2.7-25.3c-0.6-5.9-5.5-10.3-11.4-10.3h-6.6v-3.3h2.5c0.6,0,1.1,0.3,1.5,0.8   c0.5,0.7,1.2,1.1,2,1.1c0.5,0,1-0.1,1.4-0.4c1.1-0.8,1.4-2.3,0.6-3.4c-1.2-1.8-3.3-2.9-5.5-2.9h-19.1c-2.2,0-4.2,1.1-5.5,2.9   c-0.8,1.1-0.5,2.6,0.6,3.4c1.1,0.8,2.6,0.5,3.4-0.6c0.3-0.5,0.9-0.8,1.5-0.8h2.5v3.3h-6.6c-5.9,0-10.8,4.4-11.4,10.3l-2.7,25.3   c-0.1,1.4,0,2.8,0.3,4.2l2.7,9.9c1.1,4,4.2,7.1,8.1,8.1l-2.7,7.8c-0.4,1.3,0.2,2.7,1.5,3.1c0.3,0.1,0.5,0.1,0.8,0.1   c1,0,1.9-0.6,2.3-1.6l3.2-9h23.3l3.2,9c0.4,1,1.3,1.6,2.3,1.6c0.3,0,0.5,0,0.8-0.1c1.3-0.4,1.9-1.8,1.5-3.1L1010,75   c3.9-1.1,7-4.1,8.1-8.1l2.7-10C1020.9,55.5,1021,54.1,1020.9,52.7L1020.9,52.7z M990.9,13.9h4.4v3.3h-4.4V13.9z M985.7,65.2   c0,0.6-0.5,1.1-1.1,1.1H977c-0.5,0-0.9-0.4-1-0.9l-0.9-4.3c-0.1-0.3,0-0.6,0.2-0.9c0.2-0.2,0.5-0.4,0.8-0.4h8.5   c0.6,0,1.1,0.5,1.1,1.1V65.2z M1011.2,61.1l-0.9,4.3c-0.1,0.5-0.5,0.9-1,0.9h-7.6c-0.6,0-1.1-0.5-1.1-1.1v-4.3   c0-0.6,0.5-1.1,1.1-1.1h8.5c0.3,0,0.6,0.1,0.8,0.4C1011.1,60.5,1011.2,60.8,1011.2,61.1L1011.2,61.1z M972.9,49.2l1.6-15   c0.5-4.3,4.1-7.6,8.5-7.6h20.3c4.4,0,8,3.3,8.5,7.6l1.6,15H972.9z"></path>
	<path class="st5" d="M1478,46.8c-0.4-0.5-1-0.8-1.6-0.8h-7.8c-1.9-5.1-4.4-10.1-7.3-11.9c-9.9-6.5-36.1-6.5-45.9,0   c-2.9,1.9-5.4,6.9-7.3,11.9h-7.8c-0.6,0-1.2,0.3-1.6,0.8s-0.5,1.1-0.4,1.7l1.2,5.6c0.2,1,1,1.6,2,1.6h2.3c-2.2,2.6-3.3,5.8-3.3,9.1   c0,4,1.5,7.6,4.3,10.2l0.1,0.1v7.8c0,1.7,1.4,3.1,3.1,3.1h7.2c1.7,0,3.1-1.4,3.1-3.1v-3.2h40.4v3.2c0,1.7,1.4,3.1,3.1,3.1h7.2   c1.7,0,3.1-1.4,3.1-3.1v-7.7c2.9-2.7,4.4-6.4,4.4-10.1c0-3.4-1.1-6.7-3.5-9.4h2.5c1,0,1.8-0.7,2-1.6l1.2-5.6   C1478.5,47.9,1478.4,47.2,1478,46.8L1478,46.8z M1418.7,39.2c7.9-5.2,31.3-5.2,39.2,0c1.5,1,3.5,5.1,5.3,10h-49.8   C1415.2,44.3,1417.2,40.2,1418.7,39.2L1418.7,39.2z M1409.5,65.5c0-3.3,2.7-6.1,6.1-6.1c3.3,0,6.1,2.7,6.1,6.1s-2.7,6.1-6.1,6.1   C1412.2,71.6,1409.5,68.9,1409.5,65.5L1409.5,65.5z M1461.1,71.6c-3.3,0-6.1-2.7-6.1-6.1c0-3.3,2.7-6.1,6.1-6.1s6.1,2.7,6.1,6.1   C1467.2,68.9,1464.5,71.6,1461.1,71.6L1461.1,71.6z"></path>
	<g>
		<path class="st5" d="M581.2,9c2.2,0,4.2,0.9,5.6,2.3c1.4,1.4,2.3,3.4,2.3,5.6c0,2.2-0.9,4.2-2.3,5.6c-1.4,1.4-3.4,2.3-5.6,2.3    s-4.2-0.9-5.6-2.3c-1.4-1.4-2.3-3.4-2.3-5.6c0-2.2,0.9-4.2,2.3-5.6C577.1,9.9,579.1,9,581.2,9z"></path>
		<path class="st5" d="M579.6,25.6c1.2,0.3,2.2,0.9,3,1.6c0.8,0.8,1.5,1.7,1.9,2.8l6.9,11.2l12.7,2.2c1.1,0.2,1.9,0.9,2.3,1.8    c0.4,0.9,0.5,2,0.4,3c0,0.2,0,0.3,0,0.5c-0.2,1.1-0.9,1.9-1.9,2.3c-0.8,0.3-1.8,0.4-2.7,0.3c-0.2,0-0.4,0-0.5-0.1l-13.3-2.3    c-0.3-0.1-0.7-0.2-1-0.4c-0.3-0.1-0.5-0.3-0.8-0.5c-0.3-0.2-0.6-0.5-0.9-0.7c-0.3-0.3-0.6-0.7-0.8-1l-2.1-3.4    c-0.8,3.5-2,8.6-3.1,11.1l7.3,6.2c0.3,0.3,0.7,0.6,0.9,1c0.2,0.3,0.5,0.6,0.7,1c0.3,0.3,0.5,0.6,0.6,1c0.2,0.4,0.3,0.8,0.3,1.2    l1.2,15.5c0,0.2,0,0.4,0,0.6c0,1-0.2,2.1-0.7,3c-0.3,0.6-0.8,1.2-1.4,1.5c-0.8,0.5-1.7,0.4-2.6,0.4c-0.9-0.1-1.8-0.3-2.6-0.8    c-1-0.6-1.7-1.4-1.8-2.7l-1.2-15.2l-7-6l-1.1,7.9c-0.1,0.4-0.2,0.8-0.3,1.2c-0.1,0.3-0.2,0.7-0.4,1c-0.1,0.3-0.2,0.5-0.3,0.7    c-0.1,0.3-0.3,0.6-0.5,0.8l-10.4,11.6c-0.1,0.1-0.3,0.3-0.4,0.4c-0.7,0.7-1.7,1.3-2.6,1.6c-1.1,0.3-2.3,0.2-3.2-0.6l0,0l-0.1-0.1    l0,0c-0.1,0-0.1-0.1-0.2-0.2c-0.8-0.9-1.6-2-1.8-3.1c-0.3-1.1-0.1-2.2,0.7-3.1l10.4-11.6l0.1-0.1l1.9-14c0.1-0.5,0.1-1.2,0.2-1.8    c0.1-1,0.1-1.9,0.3-2.6l3.2-12.4l-5.9,1.8l-5.4,11.7c-0.5,1.1-1.3,1.6-2.4,1.8c-1,0.2-2.2-0.1-3.2-0.4l0,0l0,0    c-0.1,0-0.1,0-0.2-0.1c-1-0.5-1.6-1.4-1.7-2.5c-0.1-0.9,0-1.8,0.4-2.7l0,0l0,0c0.1-0.1,0.1-0.3,0.2-0.5l5.7-12.2    c0.1-0.3,0.4-0.6,0.6-0.9c0.2-0.2,0.4-0.4,0.7-0.6c0.3-0.3,0.6-0.5,1-0.7s0.8-0.4,1.2-0.5l15.1-4.6c0.2-0.1,0.3-0.1,0.5-0.2l0,0    c0,0,0,0,0.1,0s0.2-0.1,0.4-0.1l0,0l0,0c0.1,0,0.2-0.1,0.4-0.1c0.1,0,0.2,0,0.3,0c0.5-0.1,1-0.1,1.5-0.1    C578.6,25.4,579.1,25.4,579.6,25.6z"></path>
	</g>
	<g>
		<line class="st4" x1="-4.6" y1="129.1" x2="1538.9" y2="129.1"></line>
		<rect x="-4.6" y="127.6" class="st5" width="1543.5" height="3"></rect>
	</g>
	<g>
		<line class="st4" x1="-4.6" y1="256.5" x2="1538.9" y2="256.5"></line>
		<rect x="-4.6" y="255" class="st5" width="1543.5" height="3"></rect>
	</g>
	<g>
		<line class="st4" x1="-4.6" y1="379.9" x2="1538.9" y2="379.9"></line>
		<rect x="-4.6" y="378.4" class="st5" width="1543.5" height="3"></rect>
	</g>
	<g>
		<line class="st4" x1="-4.6" y1="505.3" x2="1538.9" y2="505.3"></line>
		<rect x="-4.6" y="503.8" class="st5" width="1543.5" height="3"></rect>
	</g>
	<g>
		<line class="st4" x1="-4.6" y1="629.7" x2="1538.9" y2="629.7"></line>
		<rect x="-4.6" y="628.2" class="st5" width="1543.5" height="3"></rect>
	</g>
	<g>
		<line class="st4" x1="-4.6" y1="753.1" x2="1538.9" y2="753.1"></line>
		<rect x="-4.6" y="751.6" class="st5" width="1543.5" height="3"></rect>
	</g>
	<g>
		<line class="st4" x1="-4.6" y1="878.5" x2="1538.9" y2="878.5"></line>
		<rect x="-4.6" y="877" class="st5" width="1543.5" height="3"></rect>
	</g>
	<g>
		<line class="st4" x1="-4.6" y1="1001.9" x2="1538.9" y2="1001.9"></line>
		<rect x="-4.6" y="1000.4" class="st5" width="1543.5" height="3"></rect>
	</g>
	<g>
		<path class="st5" d="M22.5,244h-8.2v-28.5H5.8l1.5-6.4h23v6.4h-7.8V244z"></path>
		<path class="st5" d="M38,236.5v7.5h-7.1v-23.6H38v3.9c1.1-3.2,4.7-4.6,7.8-4.3c-0.2,0.7-0.8,6-1,6.6C39.6,226.4,38,230.1,38,236.5    z"></path>
		<path class="st5" d="M59.3,220c6.8,0,10.7,3.4,11.6,4.2V244h-7.1v-4.2c-0.6,1.1-2.4,4.6-6.9,4.6c-6.2,0-10.1-4.7-10.1-11.8    C46.8,225.5,51.3,220,59.3,220z M58.8,238.5c3,0,5-2.9,5-8.6v-3.1c-0.6-0.4-2-1.1-4.2-1.1c-3.7,0-5.5,3.1-5.5,6.8    C54.1,235.8,55.4,238.5,58.8,238.5z"></path>
		<path class="st5" d="M104,230.6c0-3-0.8-4.7-3.1-4.7c-2.9,0-3.3,2.7-3.3,7.4V244h-7.2v-13.6c0-3-0.9-4.5-3.2-4.5    c-2.7,0-3.3,2.2-3.3,7.4V244h-7.1v-23.6h7.1v3.5c0.6-1.1,1.9-3.3,4.7-3.8c0.7-0.1,1.5-0.1,2.3,0c2.8,0.2,4.6,1.5,5.7,4.2    c1-1.9,3-4.4,6.7-4.4c5,0,8,2.9,8,10.1v13.9H104L104,230.6L104,230.6z"></path>
		<path class="st5" d="M115.5,227.2h14.6v5.9h-14.6V227.2z"></path>
		<path class="st5" d="M146.9,215.1c-2.3,0-4.3,1.1-4.3,3.1c0,5.9,15.7,3.8,15.7,15.6c0,6.1-4.7,10.7-13,10.7    c-5.6,0-10.8-3-12.5-4.3l3.5-5.8c1.1,0.8,4.8,3.6,8.9,3.6c3,0,4.8-1.7,4.8-4c0-6.4-15.9-4.4-15.9-15.7c0-6,4.9-9.5,11.8-9.5    c5.9,0,9.4,2.2,10.2,2.8l-0.6,6.6C154.5,217.1,150.9,215.1,146.9,215.1z"></path>
		<path class="st5" d="M172.6,244.3c-6.4,0-8.5-2.9-8.5-9.3v-9h-4.4l1.4-5.5h3v-5l7.3-1.5v6.5h5.5v5.5h-5.5v9.1c0,2.5,0.5,3.4,2,3.6    c1.5,0.1,2.9,0,4.1-0.1l-1.3,5.6C175.7,244.1,174.8,244.3,172.6,244.3z"></path>
		<path class="st5" d="M191.6,220c6.8,0,10.7,3.4,11.6,4.2V244h-7.1v-4.2c-0.6,1.1-2.4,4.6-6.9,4.6c-6.2,0-10.1-4.7-10.1-11.8    C179.1,225.5,183.6,220,191.6,220z M191.1,238.5c3,0,5-2.9,5-8.6v-3.1c-0.6-0.4-2-1.1-4.2-1.1c-3.7,0-5.5,3.1-5.5,6.8    C186.5,235.8,187.7,238.5,191.1,238.5z"></path>
		<path class="st5" d="M219.5,244.3c-6.4,0-8.5-2.9-8.5-9.3v-9h-4.4l1.4-5.5h3v-5l7.3-1.5v6.5h5.5v5.5h-5.5v9.1c0,2.5,0.5,3.4,2,3.6    c1.5,0.1,2.9,0,4.1-0.1l-1.3,5.6C222.6,244.1,221.7,244.3,219.5,244.3z"></path>
		<path class="st5" d="M232,216.3c-2.3,0-4.1-1.3-4.1-3.4s1.8-3.4,4.1-3.4c2.3,0,4.1,1.2,4.1,3.4S234.3,216.3,232,216.3z     M228.4,220.4h7.3V244h-7.3V220.4z"></path>
		<path class="st5" d="M253.3,244.3c-7,0-12.7-4.4-12.7-12.1c0-7.8,5.6-12.2,12.7-12.2c7,0,12.6,4.4,12.6,12.3    C265.9,239.9,260.3,244.3,253.3,244.3z M253.3,225.7c-2.9,0-5.4,2.4-5.4,6.5c0,4.2,2.5,6.4,5.4,6.4c3,0,5.5-2.2,5.5-6.4    C258.7,228.1,256.3,225.7,253.3,225.7z"></path>
		<path class="st5" d="M286.3,231.2c0-3.4-1.1-5.3-3.8-5.3c-2.9,0-4.5,2.7-4.5,7.1v11h-7.2v-23.6h7.2v3.9c0.6-1,2.8-4.3,7-4.3    c5.7,0,8.6,3.4,8.6,10.6v13.3h-7.3L286.3,231.2L286.3,231.2z"></path>
		<path class="st5" d="M18.8,366.7H9.2v-34.8h8.3c8.4,0,14.2,2.4,14.2,9.1c0,2.9-1.8,5.5-4.1,6.1c4.1,1,7,3.7,7,8.9    C34.5,363.8,28.5,366.7,18.8,366.7z M17.5,337.9v7c5.2,0,6.6-1.1,6.6-3.4C24.1,338.8,22.3,337.9,17.5,337.9z M19.1,350.7h-1.6v9.7    h1.6c5.7,0,7.1-1.7,7.2-4.7C26.3,352.9,24.8,350.7,19.1,350.7z"></path>
		<path class="st5" d="M51,342.7c6.8,0,10.7,3.4,11.6,4.2v19.8h-7.2v-4.2c-0.6,1.1-2.4,4.6-6.9,4.6c-6.2,0-10.1-4.7-10.1-11.8    C38.5,348.2,43,342.7,51,342.7z M50.4,361.2c3,0,5-2.9,5-8.6v-3.1c-0.6-0.4-2-1.1-4.2-1.1c-3.7,0-5.5,3.1-5.5,6.8    C45.8,358.5,47.1,361.2,50.4,361.2z"></path>
		<path class="st5" d="M77,348.1c-1.2,0-2.4,0.5-2.4,1.6c0,3.3,11.8,1.9,11.8,9.8c0,4.6-4,7.6-9.6,7.6c-4.7,0-8.9-2.3-10.3-3.2    l3.4-4.8c0.7,0.5,3.9,2.5,6.8,2.5c1.7,0,2.5-0.8,2.5-1.9c0-3.5-11.6-2-11.6-10c0-4.4,3.4-6.9,9.1-6.9c4.2,0,7.6,1.6,8.3,2.1    l-1.1,5.2C82.8,349.3,79.6,348.1,77,348.1z"></path>
		<path class="st5" d="M102.8,361.4c2.6,0,4.4-0.8,6.1-2.1l3.1,4.9c-3.4,2.3-6.6,2.8-9.4,2.8c-8,0-13-4.7-13-12.1    c0-7.3,5.1-12.2,11.8-12.2c6.2,0,11.1,4.2,11.1,11.2c0,1.4-0.2,2.8-0.2,2.8H96.6C96.8,359.9,99.5,361.4,102.8,361.4z M96.7,351.6    h9.6c-0.4-2.5-2.1-4-4.7-4C99.1,347.6,97.3,349.2,96.7,351.6z"></path>
		<path class="st5" d="M117.2,332.8l7.2-1.5v35.4h-7.2V332.8z"></path>
		<path class="st5" d="M154.7,337.8c-2.3,0-4.3,1.1-4.3,3.1c0,5.9,15.7,3.8,15.7,15.6c0,6.1-4.7,10.7-13,10.7    c-5.6,0-10.8-3-12.5-4.3l3.5-5.8c1.1,0.8,4.8,3.6,8.9,3.6c3,0,4.8-1.7,4.8-4c0-6.4-15.9-4.4-15.9-15.7c0-6,4.9-9.5,11.8-9.5    c5.9,0,9.4,2.2,10.2,2.8l-0.6,6.6C162.3,339.8,158.7,337.8,154.7,337.8z"></path>
		<path class="st5" d="M181.1,366.7h-9.7v-34.8h8.3c8.4,0,14.2,2.4,14.2,9.1c0,2.9-1.8,5.5-4.1,6.1c4.1,1,7,3.7,7,8.9    C196.8,363.8,190.8,366.7,181.1,366.7z M179.8,337.9v7c5.2,0,6.6-1.1,6.6-3.4C186.3,338.8,184.6,337.9,179.8,337.9z M181.4,350.7    h-1.6v9.7h1.6c5.7,0,7.1-1.7,7.2-4.7C188.6,352.9,187.1,350.7,181.4,350.7z"></path>
		<path class="st5" d="M212.3,366.7h-9.6v-34.8h8.3c8.4,0,14.2,2.4,14.2,9.1c0,2.9-1.8,5.5-4.1,6.1c4.1,1,7,3.7,7,8.9    C228,363.8,222,366.7,212.3,366.7z M211,337.9v7c5.2,0,6.6-1.1,6.6-3.4C217.5,338.8,215.8,337.9,211,337.9z M212.6,350.7H211v9.7    h1.6c5.7,0,7.1-1.7,7.2-4.7C219.8,352.9,218.3,350.7,212.6,350.7z"></path>
		<path class="st5" d="M18.8,489.4H9.2v-34.8h8.3c8.4,0,14.2,2.4,14.2,9.1c0,2.9-1.8,5.5-4.1,6.1c4.1,1,7,3.7,7,8.9    C34.5,486.5,28.5,489.4,18.8,489.4z M17.5,460.6v7c5.2,0,6.6-1.1,6.6-3.4C24.1,461.5,22.3,460.6,17.5,460.6z M19.1,473.4h-1.6v9.7    h1.6c5.7,0,7.1-1.7,7.2-4.7C26.3,475.6,24.8,473.4,19.1,473.4z"></path>
		<path class="st5" d="M51,465.5c6.8,0,10.7,3.4,11.6,4.2v19.8h-7.2v-4.3c-0.6,1.1-2.4,4.6-6.9,4.6c-6.2,0-10.1-4.7-10.1-11.8    C38.5,470.9,43,465.5,51,465.5z M50.4,483.9c3,0,5-2.9,5-8.6v-3.1c-0.6-0.4-2-1.1-4.2-1.1c-3.7,0-5.5,3.1-5.5,6.8    C45.8,481.3,47.1,483.9,50.4,483.9z"></path>
		<path class="st5" d="M75.6,481.9v7.5h-7.2v-23.6h7.1v3.9c1.1-3.2,4.7-4.6,7.8-4.3c-0.2,0.7-0.8,6-1,6.6    C77.2,471.9,75.6,475.5,75.6,481.9z"></path>
		<path class="st5" d="M98.4,459.8c-1.9,0-2.8,0.9-2.8,3.3v2.7h4.9v5.4h-4.9v18.2h-7.2v-18.2H84l1.4-5.4h2.9v-2.7c0-6.9,3.8-9,8.7-9    c2.5,0,4.4,0.6,5.1,0.7l-1,5.4C100.7,460.1,99.6,459.8,98.4,459.8z"></path>
		<path class="st5" d="M112.1,478.7c0,3.4,0.9,5.3,3.7,5.3c2.9,0,4.4-2.6,4.4-7.1v-11.1h7.2v23.6h-7.2v-3.8c-0.6,1-2.6,4.2-7,4.2    c-6.4,0-8.5-3.8-8.5-12.3v-11.7h7.3v12.9H112.1z M110,462.6c-2.3,0-4.1-1.3-4.1-3.4c0-2.2,1.8-3.4,4.1-3.4c2.2,0,4.2,1.2,4.2,3.5    C114.2,461.4,112.3,462.6,110,462.6z M121.4,462.6c-2.2,0-4.1-1.3-4.1-3.4c0-2.2,1.9-3.4,4.1-3.4c2.4,0,4.2,1.2,4.2,3.5    C125.6,461.4,123.8,462.6,121.4,462.6z"></path>
		<path class="st5" d="M141.9,470.8c-1.2,0-2.4,0.5-2.4,1.6c0,3.3,11.8,1.9,11.8,9.8c0,4.6-4,7.6-9.6,7.6c-4.7,0-8.9-2.3-10.3-3.2    l3.4-4.8c0.7,0.5,3.9,2.5,6.8,2.5c1.7,0,2.5-0.8,2.5-1.9c0-3.5-11.6-2-11.6-10c0-4.4,3.4-6.9,9.1-6.9c4.2,0,7.6,1.6,8.3,2.1    l-1.1,5.2C147.7,472,144.4,470.8,141.9,470.8z"></path>
		<path class="st5" d="M164,470.8c-1.2,0-2.4,0.5-2.4,1.6c0,3.3,11.8,1.9,11.8,9.8c0,4.6-4,7.6-9.6,7.6c-4.7,0-8.9-2.3-10.3-3.2    l3.4-4.8c0.7,0.5,3.9,2.5,6.8,2.5c1.7,0,2.5-0.8,2.5-1.9c0-3.5-11.6-2-11.6-10c0-4.4,3.4-6.9,9.1-6.9c4.2,0,7.6,1.6,8.3,2.1    l-1.1,5.2C169.8,472,166.5,470.8,164,470.8z"></path>
		<path class="st5" d="M189.8,484.1c2.6,0,4.4-0.8,6.1-2.1l3.1,4.9c-3.4,2.3-6.6,2.8-9.4,2.8c-8,0-13-4.7-13-12.1    c0-7.3,5.1-12.2,11.8-12.2c6.2,0,11.1,4.2,11.1,11.2c0,1.4-0.2,2.8-0.2,2.8h-15.7C183.8,482.6,186.5,484.1,189.8,484.1z     M183.6,474.3h9.6c-0.4-2.5-2.1-4-4.7-4C186.1,470.3,184.3,471.9,183.6,474.3z"></path>
		<path class="st5" d="M211.3,481.9v7.5h-7.1v-23.6h7.1v3.9c1.1-3.2,4.7-4.6,7.8-4.3c-0.2,0.7-0.8,6-1,6.6    C212.9,471.9,211.3,475.5,211.3,481.9z"></path>
		<path class="st5" d="M246.4,477.2c0,6.9-4,12.5-11.1,12.5c-3,0-5.7-1.2-5.7-1.2v8.2l-7.1,1.5c-0.1,0,0-8.7,0-32.4h7.1v4.1    c0.6-1.3,2.5-4.5,6.9-4.5C242.7,465.5,246.4,470.2,246.4,477.2z M234.6,471.4c-3,0-5,2.9-5,8.5v2.9c0.7,0.3,2.1,1.2,4.3,1.2    c3.5,0,5.3-3.1,5.3-6.7C239.2,474,237.9,471.4,234.6,471.4z"></path>
		<path class="st5" d="M251.3,455.5l7.2-1.5v35.4h-7.2V455.5z"></path>
		<path class="st5" d="M275.8,465.5c6.8,0,10.7,3.4,11.6,4.2v19.8h-7.1v-4.3c-0.6,1.1-2.4,4.6-6.9,4.6c-6.2,0-10.1-4.7-10.1-11.8    S267.8,465.5,275.8,465.5z M275.2,483.9c3,0,5-2.9,5-8.6v-3.1c-0.6-0.4-2-1.1-4.2-1.1c-3.7,0-5.5,3.1-5.5,6.8    C270.6,481.3,271.9,483.9,275.2,483.9z"></path>
		<path class="st5" d="M303.6,489.7c-6.4,0-8.5-2.9-8.5-9.3v-9h-4.4l1.4-5.5h3v-5l7.3-1.5v6.5h5.5v5.5h-5.5v9.1c0,2.5,0.5,3.4,2,3.6    c1.5,0.1,2.9,0,4.1-0.1l-1.3,5.6C306.8,489.5,305.8,489.7,303.6,489.7z"></path>
		<path class="st5" d="M333.7,483.5l-1.5,5.9h-23l11.9-17.7h-10l1.5-5.9h20.3L321,483.5H333.7z"></path>
		<path class="st5" d="M18.8,612.1H9.2v-34.8h8.3c8.4,0,14.2,2.4,14.2,9.1c0,2.9-1.8,5.5-4.1,6.1c4.1,1,7,3.7,7,8.9    C34.5,609.3,28.5,612.1,18.8,612.1z M17.5,583.3v7c5.2,0,6.6-1.1,6.6-3.4C24.1,584.2,22.3,583.3,17.5,583.3z M19.1,596.1h-1.6v9.7    h1.6c5.7,0,7.1-1.7,7.2-4.7C26.3,598.3,24.8,596.1,19.1,596.1z"></path>
		<path class="st5" d="M51,588.2c6.8,0,10.7,3.4,11.6,4.2v19.8h-7.2V608c-0.6,1.1-2.4,4.6-6.9,4.6c-6.2,0-10.1-4.7-10.1-11.8    C38.5,593.6,43,588.2,51,588.2z M50.4,606.6c3,0,5-2.9,5-8.6v-3.1c-0.6-0.4-2-1.1-4.2-1.1c-3.7,0-5.5,3.1-5.5,6.8    C45.8,604,47.1,606.6,50.4,606.6z"></path>
		<path class="st5" d="M83.9,601.2c0-4.4-0.3-7.2-3.8-7.2s-4.5,3.4-4.5,8.3v9.8h-7.2v-33.9l7.2-1.5v15.7c0.6-1,2.9-4.3,7.1-4.3    c7,0,8.5,4.3,8.5,13.9v10.1h-7.3V601.2z"></path>
		<path class="st5" d="M112.2,599.3c0-3.4-1.1-5.3-3.8-5.3c-2.9,0-4.5,2.7-4.5,7.1v11h-7.2v-23.6h7.2v3.9c0.6-1,2.8-4.3,7-4.3    c5.7,0,8.6,3.4,8.6,10.6V612h-7.3L112.2,599.3L112.2,599.3z"></path>
		<path class="st5" d="M140.6,601.2c0-4.4-0.3-7.2-3.8-7.2s-4.5,3.4-4.5,8.3v9.8h-7.2v-33.9l7.2-1.5v15.7c0.6-1,2.9-4.3,7.1-4.3    c7,0,8.5,4.3,8.5,13.9v10.1h-7.3L140.6,601.2L140.6,601.2z"></path>
		<path class="st5" d="M164.9,612.5c-7,0-12.7-4.4-12.7-12.1c0-7.8,5.6-12.2,12.7-12.2c7,0,12.6,4.4,12.6,12.3    C177.5,608.1,171.9,612.5,164.9,612.5z M164.9,593.8c-2.9,0-5.4,2.4-5.4,6.5c0,4.2,2.5,6.4,5.4,6.4c3,0,5.5-2.2,5.5-6.4    C170.3,596.3,167.9,593.8,164.9,593.8z"></path>
		<path class="st5" d="M194,582.5c-1.9,0-2.8,0.9-2.8,3.3v2.7h4.9v5.4h-4.9v18.2H184v-18.2h-4.4l1.4-5.4h2.9v-2.7c0-6.9,3.8-9,8.7-9    c2.5,0,4.4,0.6,5.1,0.7l-1,5.4C196.3,582.8,195.3,582.5,194,582.5z"></path>
		<path class="st5" d="M223.2,612.1h-9.6v-34.8h8.3c8.4,0,14.2,2.4,14.2,9.1c0,2.9-1.8,5.5-4.1,6.1c4.1,1,7,3.7,7,8.9    C238.9,609.3,232.9,612.1,223.2,612.1z M221.9,583.3v7c5.2,0,6.6-1.1,6.6-3.4C228.5,584.2,226.7,583.3,221.9,583.3z M223.5,596.1    h-1.6v9.7h1.6c5.7,0,7.1-1.7,7.2-4.7C230.7,598.3,229.2,596.1,223.5,596.1z"></path>
		<path class="st5" d="M255.4,588.2c6.8,0,10.7,3.4,11.6,4.2v19.8h-7.1V608c-0.6,1.1-2.4,4.6-6.9,4.6c-6.2,0-10.1-4.7-10.1-11.8    C242.9,593.6,247.3,588.2,255.4,588.2z M254.8,606.6c3,0,5-2.9,5-8.6v-3.1c-0.6-0.4-2-1.1-4.2-1.1c-3.7,0-5.5,3.1-5.5,6.8    C250.2,604,251.5,606.6,254.8,606.6z"></path>
		<path class="st5" d="M271.8,600.8c0-6.9,4.1-12.5,11.2-12.5c3,0,5.6,1.2,5.6,1.2v-11.2l7.2-1.5v35.4h-7.1v-4.1    c-0.6,1.3-2.6,4.5-6.9,4.5C275.6,612.5,271.8,607.8,271.8,600.8z M283.6,606.6c3,0,5.1-2.9,5.1-8.6v-2.9c-0.6-0.4-2-1.3-4.2-1.3    c-3.5,0-5.4,3.1-5.4,6.8C279.1,604,280.4,606.6,283.6,606.6z"></path>
		<path class="st5" d="M18.8,734.8H9.2V700h8.3c8.4,0,14.2,2.4,14.2,9.1c0,2.9-1.8,5.5-4.1,6.1c4.1,1,7,3.7,7,8.9    C34.5,732,28.5,734.8,18.8,734.8z M17.5,706v7c5.2,0,6.6-1.1,6.6-3.4C24.1,706.9,22.3,706,17.5,706z M19.1,718.8h-1.6v9.7h1.6    c5.7,0,7.1-1.7,7.2-4.7C26.3,721.1,24.8,718.8,19.1,718.8z"></path>
		<path class="st5" d="M51,710.9c6.8,0,10.7,3.4,11.6,4.2v19.8h-7.2v-4.2c-0.6,1.1-2.4,4.6-6.9,4.6c-6.2,0-10.1-4.7-10.1-11.8    C38.5,716.3,43,710.9,51,710.9z M50.4,729.3c3,0,5-2.9,5-8.6v-3.1c-0.6-0.4-2-1.1-4.2-1.1c-3.7,0-5.5,3.1-5.5,6.8    C45.8,726.7,47.1,729.3,50.4,729.3z"></path>
		<path class="st5" d="M77,716.2c-1.2,0-2.4,0.4-2.4,1.6c0,3.3,11.8,1.9,11.8,9.8c0,4.6-4,7.6-9.6,7.6c-4.7,0-8.9-2.3-10.3-3.2    l3.4-4.8c0.7,0.5,3.9,2.5,6.8,2.5c1.7,0,2.5-0.8,2.5-1.9c0-3.5-11.6-2-11.6-10c0-4.4,3.4-6.9,9.1-6.9c4.2,0,7.6,1.6,8.3,2.1    l-1.1,5.2C82.8,717.5,79.6,716.2,77,716.2z"></path>
		<path class="st5" d="M102.8,729.5c2.6,0,4.4-0.8,6.1-2.1l3.1,4.9c-3.4,2.3-6.6,2.8-9.4,2.8c-8,0-13-4.7-13-12.1    c0-7.3,5.1-12.2,11.8-12.2c6.2,0,11.1,4.2,11.1,11.2c0,1.4-0.2,2.8-0.2,2.8H96.6C96.8,728,99.5,729.5,102.8,729.5z M96.7,719.8    h9.6c-0.4-2.5-2.1-4-4.7-4C99.1,715.7,97.3,717.3,96.7,719.8z"></path>
		<path class="st5" d="M117.2,700.9l7.2-1.5v35.4h-7.2V700.9z"></path>
		<path class="st5" d="M172.8,699.6h1.1l6.4,35.2h-8.2l-3-18.2l-8.3,12.2l-8.4-12.2l-3,18.2h-8.2l6.4-35.2h1.2l12,18L172.8,699.6z"></path>
		<path class="st5" d="M197.3,729.5c2.6,0,4.4-0.8,6.1-2.1l3.1,4.9c-3.4,2.3-6.6,2.8-9.4,2.8c-8,0-13-4.7-13-12.1    c0-7.3,5.1-12.2,11.8-12.2c6.2,0,11.1,4.2,11.1,11.2c0,1.4-0.2,2.8-0.2,2.8h-15.7C191.3,728,194,729.5,197.3,729.5z M191.2,719.8    h9.6c-0.4-2.5-2.1-4-4.7-4C193.6,715.7,191.8,717.3,191.2,719.8z"></path>
		<path class="st5" d="M220.2,716.2c-1.2,0-2.4,0.4-2.4,1.6c0,3.3,11.8,1.9,11.8,9.8c0,4.6-4,7.6-9.6,7.6c-4.7,0-8.9-2.3-10.3-3.2    l3.4-4.8c0.7,0.5,3.9,2.5,6.8,2.5c1.7,0,2.5-0.8,2.5-1.9c0-3.5-11.6-2-11.6-10c0-4.4,3.4-6.9,9.1-6.9c4.2,0,7.6,1.6,8.3,2.1    l-1.1,5.2C226.1,717.5,222.8,716.2,220.2,716.2z"></path>
		<path class="st5" d="M242.3,716.2c-1.2,0-2.4,0.4-2.4,1.6c0,3.3,11.8,1.9,11.8,9.8c0,4.6-4,7.6-9.6,7.6c-4.7,0-8.9-2.3-10.3-3.2    l3.4-4.8c0.7,0.5,3.9,2.5,6.8,2.5c1.7,0,2.5-0.8,2.5-1.9c0-3.5-11.6-2-11.6-10c0-4.4,3.4-6.9,9.1-6.9c4.2,0,7.6,1.6,8.3,2.1    l-1.1,5.2C248.2,717.5,244.9,716.2,242.3,716.2z"></path>
		<path class="st5" d="M268.2,729.5c2.6,0,4.4-0.8,6.1-2.1l3.1,4.9c-3.4,2.3-6.6,2.8-9.4,2.8c-8,0-13-4.7-13-12.1    c0-7.3,5.1-12.2,11.8-12.2c6.2,0,11.1,4.2,11.1,11.2c0,1.4-0.2,2.8-0.2,2.8H262C262.2,728,264.9,729.5,268.2,729.5z M262,719.8    h9.6c-0.4-2.5-2.1-4-4.7-4C264.4,715.7,262.7,717.3,262,719.8z"></path>
		<path class="st5" d="M17.5,857.5H9.2v-34.9h20.4v6.4H17.5v6.5h8.4v6.5h-8.4L17.5,857.5L17.5,857.5z"></path>
		<path class="st5" d="M33.1,823.6l7.2-1.5v35.4h-7.2V823.6z"></path>
		<path class="st5" d="M53.2,846.9c0,3.4,0.9,5.3,3.7,5.3c2.9,0,4.4-2.6,4.4-7.1V834h7.2v23.6h-7.2v-3.8c-0.6,1-2.6,4.2-7,4.2    c-6.4,0-8.5-3.8-8.5-12.3V834h7.3v12.9H53.2z"></path>
		<path class="st5" d="M74.4,863l3.7-4.9c0.8,0.6,3.7,2.5,6.5,2.5c2.4,0,5.5-0.8,5.5-5.6v-2.9c-0.6,0.7-2.2,3.6-6.9,3.6    c-5.9,0-9.7-4.4-9.7-10.9c0-6.3,4.4-11.3,12.4-11.3c6.7,0,10.6,3.3,11.4,3.9v16c0,10.3-5.7,13-12.4,13    C79.9,866.4,75.9,864.1,74.4,863z M85.2,850.2c2.9,0,4.8-2.6,4.8-7v-3.1c-0.6-0.3-2-0.9-4.1-0.9c-3.4,0-5.2,2.6-5.2,5.7    C80.7,848,82,850.2,85.2,850.2z"></path>
		<path class="st5" d="M118.5,846.6c0-4.4-0.3-7.2-3.8-7.2s-4.5,3.4-4.5,8.3v9.8H103v-33.9l7.2-1.5v15.7c0.6-1,2.9-4.3,7.1-4.3    c7,0,8.5,4.3,8.5,13.9v10.1h-7.3L118.5,846.6L118.5,846.6z"></path>
		<path class="st5" d="M142.6,833.6c6.8,0,10.7,3.4,11.6,4.2v19.8h-7.1v-4.2c-0.6,1.1-2.4,4.6-6.9,4.6c-6.2,0-10.1-4.7-10.1-11.8    C130.2,839,134.6,833.6,142.6,833.6z M142.1,852c3,0,5-2.9,5-8.6v-3.1c-0.6-0.4-2-1.1-4.2-1.1c-3.7,0-5.5,3.1-5.5,6.8    C137.5,849.4,138.8,852,142.1,852z"></path>
		<path class="st5" d="M171.8,827.9c-1.9,0-2.8,0.9-2.8,3.3v2.7h4.9v5.4H169v18.2h-7.2v-18.2h-4.4l1.4-5.4h2.9v-2.7    c0-6.9,3.8-9,8.7-9c2.5,0,4.4,0.6,5.1,0.7l-1,5.4C174.1,828.2,173,827.9,171.8,827.9z"></path>
		<path class="st5" d="M188.3,852.3c2.6,0,4.4-0.8,6.1-2.1l3.1,4.9c-3.4,2.3-6.6,2.8-9.4,2.8c-8,0-13-4.7-13-12.1    c0-7.3,5.1-12.2,11.8-12.2c6.2,0,11.1,4.2,11.1,11.2c0,1.4-0.2,2.8-0.2,2.8h-15.7C182.3,850.7,185,852.3,188.3,852.3z     M182.2,842.5h9.6c-0.4-2.5-2.1-4-4.7-4C184.6,838.4,182.9,840,182.2,842.5z"></path>
		<path class="st5" d="M218.2,844.7c0-3.4-1.1-5.3-3.8-5.3c-2.9,0-4.5,2.7-4.5,7.1v11h-7.2v-23.6h7.2v3.9c0.6-1,2.8-4.3,7-4.3    c5.7,0,8.6,3.4,8.6,10.6v13.3h-7.3L218.2,844.7L218.2,844.7z"></path>
		<path class="st5" d="M244.1,822.7h20.1v6.4h-11.8v6.5h8.7v6.5h-8.7v9.1h16.3l-1.5,6.5h-23.1L244.1,822.7L244.1,822.7z"></path>
		<path class="st5" d="M278.6,846.9c0,3.4,0.9,5.3,3.7,5.3c2.9,0,4.4-2.6,4.4-7.1V834h7.2v23.6h-7.2v-3.8c-0.6,1-2.6,4.2-7,4.2    c-6.4,0-8.5-3.8-8.5-12.3V834h7.3v12.9H278.6z"></path>
		<path class="st5" d="M307,850v7.5h-7.1v-23.6h7.1v3.9c1.1-3.2,4.7-4.6,7.8-4.3c-0.2,0.7-0.8,6-1,6.6C308.6,840,307,843.7,307,850z    "></path>
		<path class="st5" d="M328.4,857.9c-7,0-12.7-4.4-12.7-12.1c0-7.8,5.6-12.2,12.7-12.2c7,0,12.6,4.4,12.6,12.3    C341,853.5,335.5,857.9,328.4,857.9z M328.4,839.3c-2.9,0-5.4,2.4-5.4,6.5c0,4.2,2.5,6.4,5.4,6.4c3,0,5.5-2.2,5.5-6.4    C333.8,841.7,331.4,839.3,328.4,839.3z"></path>
		<path class="st5" d="M369.9,845.3c0,6.9-4,12.5-11.1,12.5c-3,0-5.7-1.2-5.7-1.2v8.2l-7.1,1.5c-0.1,0,0-8.7,0-32.4h7.1v4.1    c0.6-1.3,2.5-4.5,6.9-4.5C366.2,833.6,369.9,838.3,369.9,845.3z M358,839.5c-3,0-5,2.9-5,8.5v2.9c0.7,0.3,2.1,1.2,4.3,1.2    c3.5,0,5.3-3.1,5.3-6.7C362.6,842.1,361.3,839.5,358,839.5z"></path>
		<path class="st5" d="M386.3,857.9c-7,0-12.7-4.4-12.7-12.1c0-7.8,5.6-12.2,12.7-12.2c7,0,12.6,4.4,12.6,12.3    C398.9,853.5,393.4,857.9,386.3,857.9z M386.3,839.3c-2.9,0-5.4,2.4-5.4,6.5c0,4.2,2.5,6.4,5.4,6.4c3,0,5.5-2.2,5.5-6.4    C391.7,841.7,389.3,839.3,386.3,839.3z"></path>
		<path class="st5" d="M410.9,850v7.5h-7.1v-23.6h7.1v3.9c1.1-3.2,4.7-4.6,7.8-4.3c-0.2,0.7-0.8,6-1,6.6    C412.5,840,410.9,843.7,410.9,850z"></path>
		<path class="st5" d="M432.5,857.8c-6.4,0-8.5-2.9-8.5-9.3v-9h-4.4l1.4-5.5h3v-5l7.3-1.5v6.5h5.5v5.5h-5.5v9.1c0,2.5,0.5,3.4,2,3.6    c1.5,0.1,2.9,0,4.1-0.1l-1.3,5.6C435.6,857.7,434.6,857.8,432.5,857.8z"></path>
		<path class="st5" d="M33.6,980.2l-2.6-5.6H17.2l-2.5,5.6H5.6l17.8-35.8h1.3l17.8,35.8H33.6z M19.5,968.7h9.1L24,958.6L19.5,968.7z    "></path>
		<path class="st5" d="M51.7,969.6c0,3.4,0.9,5.3,3.7,5.3c2.9,0,4.4-2.6,4.4-7.1v-11.1H67v23.6h-7.2v-3.8c-0.6,1-2.6,4.2-7,4.2    c-6.4,0-8.5-3.8-8.5-12.3v-11.7h7.3v12.9H51.7z"></path>
		<path class="st5" d="M83.3,980.5c-6.4,0-8.5-2.9-8.5-9.3v-9h-4.4l1.4-5.5h3v-5l7.3-1.5v6.5h5.5v5.5h-5.5v9.1c0,2.5,0.5,3.4,2,3.6    c1.5,0.1,2.9,0,4.1-0.1l-1.3,5.6C86.4,980.4,85.5,980.5,83.3,980.5z"></path>
		<path class="st5" d="M102.5,980.6c-7,0-12.7-4.4-12.7-12.1c0-7.8,5.6-12.2,12.7-12.2c7,0,12.6,4.4,12.6,12.3    C115.1,976.2,109.5,980.6,102.5,980.6z M102.4,962c-2.9,0-5.4,2.4-5.4,6.5c0,4.2,2.5,6.4,5.4,6.4c3,0,5.5-2.2,5.5-6.4    C107.9,964.4,105.5,962,102.4,962z"></path>
		<path class="st5" d="M131.5,980.6c-6.9,0-10.9-3.4-11.6-4.1v-30l7.1-1.6V961c0.5-1.2,2.2-4.7,7-4.7c6,0,9.8,5.2,9.8,12.1    C143.9,975.2,139.6,980.6,131.5,980.6z M132.1,962c-3.1,0-5,3.1-5,8.2v3.6c0.6,0.4,2,1,4.3,1c3.5,0,5.3-3.1,5.3-6.6    C136.6,964.7,135.3,962,132.1,962z"></path>
		<path class="st5" d="M160.3,956.3c6.8,0,10.7,3.4,11.6,4.2v19.8h-7.1v-4.2c-0.6,1.1-2.4,4.6-6.9,4.6c-6.2,0-10.1-4.7-10.1-11.8    S152.2,956.3,160.3,956.3z M159.7,974.7c3,0,5-2.9,5-8.6V963c-0.6-0.4-2-1.1-4.2-1.1c-3.7,0-5.5,3.1-5.5,6.8    C155.1,972.1,156.4,974.7,159.7,974.7z"></path>
		<path class="st5" d="M193.2,969.3c0-4.4-0.3-7.2-3.8-7.2s-4.5,3.4-4.5,8.3v9.8h-7.2v-33.9l7.2-1.5v15.7c0.6-1,2.9-4.3,7.1-4.3    c7,0,8.5,4.3,8.5,13.9v10.1h-7.3L193.2,969.3L193.2,969.3z"></path>
		<path class="st5" d="M221.4,967.4c0-3.4-1.1-5.3-3.8-5.3c-2.9,0-4.5,2.7-4.5,7.1v11h-7.2v-23.6h7.2v3.9c0.6-1,2.8-4.3,7-4.3    c5.7,0,8.6,3.4,8.6,10.6v13.3h-7.3V967.4z"></path>
		<path class="st5" d="M245.8,956.3c6.8,0,10.7,3.4,11.6,4.2v19.8h-7.1v-4.2c-0.6,1.1-2.4,4.6-6.9,4.6c-6.2,0-10.1-4.7-10.1-11.8    S237.7,956.3,245.8,956.3z M245.2,974.7c3,0,5-2.9,5-8.6V963c-0.6-0.4-2-1.1-4.2-1.1c-3.7,0-5.5,3.1-5.5,6.8    C240.6,972.1,241.9,974.7,245.2,974.7z"></path>
		<path class="st5" d="M278.7,967.4c0-3.4-1.1-5.3-3.8-5.3c-2.9,0-4.5,2.7-4.5,7.1v11h-7.2v-23.6h7.2v3.9c0.6-1,2.8-4.3,7-4.3    c5.7,0,8.6,3.4,8.6,10.6v13.3h-7.3L278.7,967.4L278.7,967.4z"></path>
		<path class="st5" d="M300.1,961.6c-1.2,0-2.4,0.4-2.4,1.6c0,3.3,11.8,1.9,11.8,9.8c0,4.6-4,7.6-9.6,7.6c-4.7,0-8.9-2.3-10.3-3.2    l3.4-4.8c0.7,0.5,3.9,2.5,6.8,2.5c1.7,0,2.5-0.8,2.5-1.9c0-3.5-11.6-2-11.6-10c0-4.4,3.4-6.9,9.1-6.9c4.2,0,7.6,1.6,8.3,2.1    l-1.1,5.2C306,962.9,302.7,961.6,300.1,961.6z"></path>
		<path class="st5" d="M312.7,968.4c0-8,5.4-12.2,12.6-12.2c4.5,0,7.4,1.5,7.6,1.6l-0.6,5.7c0,0-2.6-1.7-6.1-1.7    c-3.3,0-6.4,2-6.4,6.5c0,4.4,3,6.5,6.3,6.5c3.2,0,5.5-1.9,5.6-2l2.8,5c-3,2-6.1,2.8-9.1,2.8C317.9,980.7,312.7,976.4,312.7,968.4z    "></path>
		<path class="st5" d="M353.7,969.3c0-4.4-0.3-7.2-3.8-7.2s-4.5,3.4-4.5,8.3v9.8h-7.2v-33.9l7.2-1.5v15.7c0.6-1,2.9-4.3,7.1-4.3    c7,0,8.5,4.3,8.5,13.9v10.1h-7.3V969.3z"></path>
		<path class="st5" d="M366.4,946.3l7.2-1.5v35.4h-7.2V946.3z"></path>
		<path class="st5" d="M386.5,969.6c0,3.4,0.9,5.3,3.7,5.3c2.9,0,4.4-2.6,4.4-7.1v-11.1h7.2v23.6h-7.2v-3.8c-0.6,1-2.6,4.2-7,4.2    c-6.4,0-8.5-3.8-8.5-12.3v-11.7h7.3L386.5,969.6L386.5,969.6z"></path>
		<path class="st5" d="M416.2,961.6c-1.2,0-2.4,0.4-2.4,1.6c0,3.3,11.8,1.9,11.8,9.8c0,4.6-4,7.6-9.6,7.6c-4.7,0-8.9-2.3-10.3-3.2    l3.4-4.8c0.7,0.5,3.9,2.5,6.8,2.5c1.7,0,2.5-0.8,2.5-1.9c0-3.5-11.6-2-11.6-10c0-4.4,3.4-6.9,9.1-6.9c4.2,0,7.6,1.6,8.3,2.1    l-1.1,5.2C422.1,962.9,418.8,961.6,416.2,961.6z"></path>
		<path class="st5" d="M438.3,961.6c-1.2,0-2.4,0.4-2.4,1.6c0,3.3,11.8,1.9,11.8,9.8c0,4.6-4,7.6-9.6,7.6c-4.7,0-8.9-2.3-10.3-3.2    l3.4-4.8c0.7,0.5,3.9,2.5,6.8,2.5c1.7,0,2.5-0.8,2.5-1.9c0-3.5-11.6-2-11.6-10c0-4.4,3.4-6.9,9.1-6.9c4.2,0,7.6,1.6,8.3,2.1    l-1.1,5.2C444.1,962.9,440.9,961.6,438.3,961.6z"></path>
	</g>
	<g>
		<path class="st5" d="M507.6,217.8l-4.8,1.9l-1-6.9l11.4-4.1h2.8v35.2h-8.4V217.8z"></path>
		<path class="st5" d="M565.2,208.8h1.1l6.4,35.2h-8.2l-3-18.2l-8.3,12.2l-8.4-12.2l-3,18.2h-8.2l6.4-35.2h1.2l12,18L565.2,208.8z"></path>
		<path class="st5" d="M581.3,216.3c-2.3,0-4.1-1.3-4.1-3.4s1.8-3.4,4.1-3.4c2.3,0,4.1,1.2,4.1,3.4S583.6,216.3,581.3,216.3z     M577.7,220.4h7.3V244h-7.3V220.4z"></path>
		<path class="st5" d="M606.5,231.2c0-3.4-1.1-5.3-3.8-5.3c-2.9,0-4.5,2.7-4.5,7.1v11H591v-23.6h7.2v3.9c0.6-1,2.8-4.3,7-4.3    c5.7,0,8.6,3.4,8.6,10.6v13.3h-7.3V231.2z"></path>
		<path class="st5" d="M622.8,244.3c-2.8,0-4.9-1.5-4.9-4.2s2.1-4.1,4.9-4.1c2.8,0,5,1.4,5,4.2C627.8,242.8,625.6,244.3,622.8,244.3    z"></path>
		<path class="st5" d="M507.6,340.6l-4.8,1.9l-1-6.9l11.4-4.1h2.8v35.2h-8.4V340.6z"></path>
		<path class="st5" d="M522.3,341.2l-0.6-6.6c0.7-0.7,4.7-3.2,10.2-3.2c7.1,0,11.5,4,11.5,10.5c0,5.4-3.8,11.5-9.9,18.4h11.6    l-1.7,6.5h-22.3v-2c14.1-15.3,14.1-19.9,14.1-22.2c0-2.3-1.2-4.7-4.7-4.7C527.1,337.9,523.5,340.2,522.3,341.2z"></path>
		<path class="st5" d="M592.2,331.5h1.1l6.4,35.2h-8.2l-3-18.2l-8.3,12.2l-8.4-12.2l-3,18.2h-8.2l6.4-35.2h1.2l12,18L592.2,331.5z"></path>
		<path class="st5" d="M608.3,339c-2.3,0-4.1-1.3-4.1-3.4s1.8-3.4,4.1-3.4c2.3,0,4.1,1.2,4.1,3.4S610.6,339,608.3,339z M604.7,343.1    h7.3v23.6h-7.3V343.1z"></path>
		<path class="st5" d="M633.5,353.9c0-3.4-1.1-5.3-3.8-5.3c-2.9,0-4.5,2.7-4.5,7.1v11H618v-23.6h7.2v3.9c0.6-1,2.8-4.3,7-4.3    c5.7,0,8.6,3.4,8.6,10.6v13.3h-7.3V353.9z"></path>
		<path class="st5" d="M649.8,367c-2.8,0-4.9-1.5-4.9-4.2s2.1-4.1,4.9-4.1c2.8,0,5,1.4,5,4.2C654.8,365.5,652.6,367,649.8,367z"></path>
		<path class="st5" d="M504.8,488.7l11-27.8h-14l1.5-6.4h22.4l-13,35.5L504.8,488.7z"></path>
		<path class="st5" d="M572.1,454.2h1.1l6.4,35.2h-8.2l-3-18.2l-8.3,12.2l-8.4-12.2l-3,18.2h-8.2l6.4-35.2h1.2l12,18L572.1,454.2z"></path>
		<path class="st5" d="M588.2,461.7c-2.3,0-4.1-1.3-4.1-3.4s1.8-3.4,4.1-3.4c2.3,0,4.1,1.2,4.1,3.4S590.5,461.7,588.2,461.7z     M584.6,465.8h7.3v23.6h-7.3V465.8z"></path>
		<path class="st5" d="M613.4,476.6c0-3.4-1.1-5.3-3.8-5.3c-2.9,0-4.5,2.7-4.5,7.1v11h-7.2v-23.6h7.2v3.9c0.6-1,2.8-4.3,7-4.3    c5.7,0,8.6,3.4,8.6,10.6v13.3h-7.3V476.6z"></path>
		<path class="st5" d="M629.8,489.7c-2.8,0-4.9-1.5-4.9-4.2s2.1-4.1,4.9-4.1c2.8,0,5,1.4,5,4.2C634.8,488.2,632.6,489.7,629.8,489.7    z"></path>
	</g>
	<g>
		<path class="st5" d="M937.2,355.2c0,7.4-5,12-14.2,12c-6.5,0-11.4-3.7-11.4-3.7l3.3-5.8c0,0,3.7,3,7.8,3c4.1,0,6-2.5,6-5.4    c0-5.6-6.1-6.7-12.7-5.3l-0.8-0.7l2.2-17.5h17.9l-1.5,6.4h-9.7l-0.8,5.9C932,343.6,937.2,347.6,937.2,355.2z"></path>
		<path class="st5" d="M984.5,331.5h1.1l6.4,35.2h-8.2l-3-18.2l-8.3,12.2l-8.4-12.2l-3,18.2h-8.2l6.4-35.2h1.2l12,18L984.5,331.5z"></path>
		<path class="st5" d="M1000.6,339c-2.3,0-4.1-1.3-4.1-3.4s1.8-3.4,4.1-3.4c2.3,0,4.1,1.2,4.1,3.4S1002.9,339,1000.6,339z     M997,343.1h7.3v23.6H997V343.1z"></path>
		<path class="st5" d="M1025.8,353.9c0-3.4-1.1-5.3-3.8-5.3c-2.9,0-4.5,2.7-4.5,7.1v11h-7.2v-23.6h7.2v3.9c0.6-1,2.8-4.3,7-4.3    c5.7,0,8.6,3.4,8.6,10.6v13.3h-7.3L1025.8,353.9L1025.8,353.9z"></path>
		<path class="st5" d="M1042.1,367c-2.8,0-4.9-1.5-4.9-4.2s2.1-4.1,4.9-4.1s5,1.4,5,4.2C1047.1,365.5,1044.9,367,1042.1,367z"></path>
		<path class="st5" d="M925.5,489.7c-7.5,0-12.8-4.2-12.8-11c0-4.3,2.8-7.6,5.8-8.7c-2.2-1.2-4.2-3.7-4.2-7.1    c0-5.5,4.7-8.7,11.2-8.7s11.3,3.5,11.3,8.7c0,3.4-2.1,6-4.2,7.1c3.1,1.1,5.8,4.3,5.8,9.1C938.4,485.6,933,489.7,925.5,489.7z     M925.5,472.6c-2.6,0-4.8,1.9-4.8,5.5c0,3.7,2.1,5.5,4.8,5.5c2.7,0,4.9-1.6,4.9-5.5C930.3,474.5,928.2,472.6,925.5,472.6z     M925.5,460c-1.8-0.1-3.4,1.4-3.4,3.9s1.5,3.9,3.4,3.9s3.6-1.5,3.6-3.9S927.4,460,925.5,460z"></path>
		<path class="st5" d="M986,454.2h1.1l6.4,35.2h-8.2l-3-18.2l-8.3,12.2l-8.4-12.2l-3,18.2h-8.2l6.4-35.2h1.2l12,18L986,454.2z"></path>
		<path class="st5" d="M1002,461.7c-2.3,0-4.1-1.3-4.1-3.4s1.8-3.4,4.1-3.4c2.3,0,4.1,1.2,4.1,3.4S1004.3,461.7,1002,461.7z     M998.4,465.8h7.3v23.6h-7.3V465.8z"></path>
		<path class="st5" d="M1027.2,476.6c0-3.4-1.1-5.3-3.8-5.3c-2.9,0-4.5,2.7-4.5,7.1v11h-7.2v-23.6h7.2v3.9c0.6-1,2.8-4.3,7-4.3    c5.7,0,8.6,3.4,8.6,10.6v13.3h-7.3L1027.2,476.6L1027.2,476.6z"></path>
		<path class="st5" d="M1043.6,489.7c-2.8,0-4.9-1.5-4.9-4.2s2.1-4.1,4.9-4.1s5,1.4,5,4.2C1048.6,488.2,1046.4,489.7,1043.6,489.7z"></path>
		<path class="st5" d="M917.4,586l-4.8,1.9l-1-6.9l11.4-4.1h2.8v35.2h-8.4V586z"></path>
		<path class="st5" d="M944.6,612.5c-7.3,0-13-4.3-13-12.5c0-2.9,1-6.9,6.1-13.6l7.5-9.8l9.1,1.3l-9.3,10.7    c7.5,0,12.7,4.6,12.7,11.5C957.7,608.2,951.9,612.5,944.6,612.5z M944.6,593.6c-2.7,0-5,2.2-5,6.4c0,4.1,2.3,6.2,5,6.2    s4.9-2.1,4.9-6.2S947.3,593.6,944.6,593.6z"></path>
		<path class="st5" d="M1005.2,576.9h1.1l6.4,35.2h-8.2l-3-18.2l-8.3,12.2l-8.4-12.2l-3,18.2h-8.2l6.4-35.2h1.2l12,18L1005.2,576.9z    "></path>
		<path class="st5" d="M1021.3,584.5c-2.3,0-4.1-1.3-4.1-3.4s1.8-3.4,4.1-3.4c2.3,0,4.1,1.2,4.1,3.4S1023.6,584.5,1021.3,584.5z     M1017.7,588.6h7.3v23.6h-7.3V588.6z"></path>
		<path class="st5" d="M1046.5,599.3c0-3.4-1.1-5.3-3.8-5.3c-2.9,0-4.5,2.7-4.5,7.1v11h-7.2v-23.6h7.2v3.9c0.6-1,2.8-4.3,7-4.3    c5.7,0,8.6,3.4,8.6,10.6V612h-7.3L1046.5,599.3L1046.5,599.3z"></path>
		<path class="st5" d="M1062.9,612.4c-2.8,0-4.9-1.5-4.9-4.2s2.1-4.1,4.9-4.1s5,1.4,5,4.2C1067.9,610.9,1065.7,612.4,1062.9,612.4z"></path>
		<path class="st5" d="M917.4,708.7l-4.8,1.9l-1-6.9l11.4-4.1h2.8v35.2h-8.4V708.7z"></path>
		<path class="st5" d="M944.6,735.2c-7.3,0-13-4.3-13-12.5c0-2.9,1-6.9,6.1-13.6l7.5-9.8l9.1,1.3l-9.3,10.7    c7.5,0,12.7,4.6,12.7,11.5C957.7,731,951.9,735.2,944.6,735.2z M944.6,716.3c-2.7,0-5,2.2-5,6.4c0,4.1,2.3,6.2,5,6.2    s4.9-2.1,4.9-6.2C949.5,718.6,947.3,716.3,944.6,716.3z"></path>
		<path class="st5" d="M1005.2,699.6h1.1l6.4,35.2h-8.2l-3-18.2l-8.3,12.2l-8.4-12.2l-3,18.2h-8.2l6.4-35.2h1.2l12,18L1005.2,699.6z    "></path>
		<path class="st5" d="M1021.3,707.2c-2.3,0-4.1-1.3-4.1-3.4s1.8-3.4,4.1-3.4c2.3,0,4.1,1.2,4.1,3.4S1023.6,707.2,1021.3,707.2z     M1017.7,711.3h7.3v23.6h-7.3V711.3z"></path>
		<path class="st5" d="M1046.5,722c0-3.4-1.1-5.3-3.8-5.3c-2.9,0-4.5,2.7-4.5,7.1v11h-7.2v-23.6h7.2v3.9c0.6-1,2.8-4.3,7-4.3    c5.7,0,8.6,3.4,8.6,10.6v13.3h-7.3L1046.5,722L1046.5,722z"></path>
		<path class="st5" d="M1062.9,735.1c-2.8,0-4.9-1.5-4.9-4.2s2.1-4.1,4.9-4.1s5,1.4,5,4.2C1067.9,733.6,1065.7,735.1,1062.9,735.1z"></path>
		<path class="st5" d="M913.2,832l-0.6-6.6c0.7-0.7,4.7-3.2,10.2-3.2c7.1,0,11.5,4,11.5,10.5c0,5.4-3.8,11.5-9.9,18.4H936l-1.7,6.5    H912v-2c14.1-15.3,14.1-19.9,14.1-22.2s-1.2-4.7-4.7-4.7C918,828.8,914.4,831,913.2,832z"></path>
		<path class="st5" d="M964.2,846.1c0,7.4-5,12-14.2,12c-6.5,0-11.4-3.7-11.4-3.7l3.3-5.8c0,0,3.7,3,7.8,3c4.1,0,6-2.5,6-5.4    c0-5.6-6.1-6.7-12.7-5.3l-0.8-0.7l2.2-17.5h17.9l-1.5,6.4h-9.7l-0.8,5.9C959,834.4,964.2,838.4,964.2,846.1z"></path>
		<path class="st5" d="M1011.5,822.3h1.1l6.4,35.2h-8.2l-3-18.2l-8.3,12.2l-8.4-12.2l-3,18.2h-8.2l6.4-35.2h1.2l12,18L1011.5,822.3z    "></path>
		<path class="st5" d="M1027.6,829.9c-2.3,0-4.1-1.3-4.1-3.4s1.8-3.4,4.1-3.4c2.3,0,4.1,1.2,4.1,3.4S1029.9,829.9,1027.6,829.9z     M1024,834h7.3v23.6h-7.3V834z"></path>
		<path class="st5" d="M1052.8,844.7c0-3.4-1.1-5.3-3.8-5.3c-2.9,0-4.5,2.7-4.5,7.1v11h-7.2v-23.6h7.2v3.9c0.6-1,2.8-4.3,7-4.3    c5.7,0,8.6,3.4,8.6,10.6v13.3h-7.3L1052.8,844.7L1052.8,844.7z"></path>
		<path class="st5" d="M1069.1,857.8c-2.8,0-4.9-1.5-4.9-4.2s2.1-4.1,4.9-4.1s5,1.4,5,4.2C1074.1,856.3,1071.9,857.8,1069.1,857.8z"></path>
	</g>
	<g>
		<path class="st5" d="M1383.2,366.7h-8.3V360h-16.2v-2l17.9-26.1h6.7v21.9h5.2l-1.6,6.2h-3.7V366.7z M1367.8,353.8h7.2v-10.3    L1367.8,353.8z"></path>
		<path class="st5" d="M1434.9,331.5h1.1l6.4,35.2h-8.2l-3-18.2l-8.3,12.2l-8.4-12.2l-3,18.2h-8.2l6.4-35.2h1.2l12,18L1434.9,331.5z    "></path>
		<path class="st5" d="M1451,339c-2.3,0-4.1-1.3-4.1-3.4s1.8-3.4,4.1-3.4c2.3,0,4.1,1.2,4.1,3.4S1453.3,339,1451,339z M1447.4,343.1    h7.3v23.6h-7.3V343.1z"></path>
		<path class="st5" d="M1476.2,353.9c0-3.4-1.1-5.3-3.8-5.3c-2.9,0-4.5,2.7-4.5,7.1v11h-7.2v-23.6h7.2v3.9c0.6-1,2.8-4.3,7-4.3    c5.7,0,8.6,3.4,8.6,10.6v13.3h-7.3L1476.2,353.9L1476.2,353.9z"></path>
		<path class="st5" d="M1492.5,367c-2.8,0-4.9-1.5-4.9-4.2s2.1-4.1,4.9-4.1s5,1.4,5,4.2C1497.5,365.5,1495.4,367,1492.5,367z"></path>
		<path class="st5" d="M1373.4,489.8c-7.3,0-13-4.3-13-12.5c0-2.9,1-6.9,6.1-13.6l7.5-9.8l9.1,1.3l-9.3,10.7    c7.5,0,12.7,4.6,12.7,11.5C1386.4,485.5,1380.7,489.8,1373.4,489.8z M1373.3,470.9c-2.7,0-5,2.2-5,6.4c0,4.1,2.3,6.2,5,6.2    s4.9-2.1,4.9-6.2C1378.3,473.2,1376,470.9,1373.3,470.9z"></path>
		<path class="st5" d="M1434,454.2h1.1l6.4,35.2h-8.2l-3-18.2l-8.3,12.2l-8.4-12.2l-3,18.2h-8.2l6.4-35.2h1.2l12,18L1434,454.2z"></path>
		<path class="st5" d="M1450.1,461.7c-2.3,0-4.1-1.3-4.1-3.4s1.8-3.4,4.1-3.4s4.1,1.2,4.1,3.4S1452.4,461.7,1450.1,461.7z     M1446.5,465.8h7.3v23.6h-7.3V465.8z"></path>
		<path class="st5" d="M1475.3,476.6c0-3.4-1.1-5.3-3.8-5.3c-2.9,0-4.5,2.7-4.5,7.1v11h-7.2v-23.6h7.2v3.9c0.6-1,2.8-4.3,7-4.3    c5.7,0,8.6,3.4,8.6,10.6v13.3h-7.3L1475.3,476.6L1475.3,476.6z"></path>
		<path class="st5" d="M1491.6,489.7c-2.8,0-4.9-1.5-4.9-4.2s2.1-4.1,4.9-4.1s5,1.4,5,4.2C1496.6,488.2,1494.5,489.7,1491.6,489.7z"></path>
		<path class="st5" d="M1365,586l-4.8,1.9l-1-6.9l11.4-4.1h2.8v35.2h-8.4V586z"></path>
		<path class="st5" d="M1383.9,586l-4.8,1.9l-1-6.9l11.4-4.1h2.8v35.2h-8.4V586z"></path>
		<path class="st5" d="M1441.5,576.9h1.1l6.4,35.2h-8.2l-3-18.2l-8.3,12.2l-8.4-12.2l-3,18.2h-8.2l6.4-35.2h1.2l12,18L1441.5,576.9z    "></path>
		<path class="st5" d="M1457.6,584.5c-2.3,0-4.1-1.3-4.1-3.4s1.8-3.4,4.1-3.4c2.3,0,4.1,1.2,4.1,3.4S1459.9,584.5,1457.6,584.5z     M1454,588.6h7.3v23.6h-7.3V588.6z"></path>
		<path class="st5" d="M1482.8,599.3c0-3.4-1.1-5.3-3.8-5.3c-2.9,0-4.5,2.7-4.5,7.1v11h-7.2v-23.6h7.2v3.9c0.6-1,2.8-4.3,7-4.3    c5.7,0,8.6,3.4,8.6,10.6V612h-7.3L1482.8,599.3L1482.8,599.3z"></path>
		<path class="st5" d="M1499.2,612.4c-2.8,0-4.9-1.5-4.9-4.2s2.1-4.1,4.9-4.1s5,1.4,5,4.2C1504.2,610.9,1502,612.4,1499.2,612.4z"></path>
		<path class="st5" d="M1365,708.7l-4.8,1.9l-1-6.9l11.4-4.1h2.8v35.2h-8.4V708.7z"></path>
		<path class="st5" d="M1392.9,735.2c-8.5,0-13.7-6.5-13.7-17.9c0-11.3,5.2-17.8,13.7-17.8s13.7,6.5,13.7,17.9    C1406.6,728.7,1401.4,735.2,1392.9,735.2z M1392.9,706c-3.2,0-5.3,4.2-5.3,11.4c0,7.3,2.1,11.4,5.3,11.4c3.3,0,5.3-4,5.3-11.3    C1398.2,710.2,1396.2,706,1392.9,706z"></path>
		<path class="st5" d="M1454.2,699.6h1.1l6.4,35.2h-8.2l-3-18.2l-8.3,12.2l-8.4-12.2l-3,18.2h-8.2l6.4-35.2h1.2l12,18L1454.2,699.6z    "></path>
		<path class="st5" d="M1470.3,707.2c-2.3,0-4.1-1.3-4.1-3.4s1.8-3.4,4.1-3.4c2.3,0,4.1,1.2,4.1,3.4S1472.6,707.2,1470.3,707.2z     M1466.7,711.3h7.3v23.6h-7.3V711.3z"></path>
		<path class="st5" d="M1495.5,722c0-3.4-1.1-5.3-3.8-5.3c-2.9,0-4.5,2.7-4.5,7.1v11h-7.2v-23.6h7.2v3.9c0.6-1,2.8-4.3,7-4.3    c5.7,0,8.6,3.4,8.6,10.6v13.3h-7.3L1495.5,722L1495.5,722z"></path>
		<path class="st5" d="M1511.8,735.1c-2.8,0-4.9-1.5-4.9-4.2s2.1-4.1,4.9-4.1s5,1.4,5,4.2C1516.8,733.6,1514.6,735.1,1511.8,735.1z"></path>
		<path class="st5" d="M1365,831.4l-4.8,1.9l-1-6.9l11.4-4.1h2.8v35.2h-8.4V831.4z"></path>
		<path class="st5" d="M1392.6,835.4c6.6,0.9,10,4.7,10,10.5c0,7.2-5.2,12-13.3,12c-5.7,0-10.1-2.5-11.5-3.5l3.3-5.7    c1,0.7,3.5,2.8,7.1,2.8c3.9,0,6-2.6,6-5.4c0-5.1-5.2-6.6-10.5-5.6l-0.6-0.7c0.1,0.1,7.5-10.9,7.3-10.7H1380l1.6-6.4h19.5v1    L1392.6,835.4z"></path>
		<path class="st5" d="M1449.9,822.3h1.1l6.4,35.2h-8.2l-3-18.2l-8.3,12.2l-8.4-12.2l-3,18.2h-8.2l6.4-35.2h1.2l12,18L1449.9,822.3z    "></path>
		<path class="st5" d="M1465.9,829.9c-2.3,0-4.1-1.3-4.1-3.4s1.8-3.4,4.1-3.4c2.3,0,4.1,1.2,4.1,3.4S1468.2,829.9,1465.9,829.9z     M1462.3,834h7.3v23.6h-7.3V834z"></path>
		<path class="st5" d="M1491.1,844.7c0-3.4-1.1-5.3-3.8-5.3c-2.9,0-4.5,2.7-4.5,7.1v11h-7.2v-23.6h7.2v3.9c0.6-1,2.8-4.3,7-4.3    c5.7,0,8.6,3.4,8.6,10.6v13.3h-7.3L1491.1,844.7L1491.1,844.7z"></path>
		<path class="st5" d="M1507.5,857.8c-2.8,0-4.9-1.5-4.9-4.2s2.1-4.1,4.9-4.1s5,1.4,5,4.2C1512.5,856.3,1510.3,857.8,1507.5,857.8z"></path>
		<path class="st5" d="M1373.4,980.6c-7.3,0-13-4.3-13-12.5c0-2.9,1-6.9,6.1-13.6l7.5-9.8l9.1,1.3l-9.3,10.7    c7.5,0,12.7,4.6,12.7,11.5C1386.4,976.4,1380.7,980.6,1373.4,980.6z M1373.3,961.8c-2.7,0-5,2.2-5,6.4c0,4.1,2.3,6.2,5,6.2    s4.9-2.1,4.9-6.2C1378.3,964,1376,961.8,1373.3,961.8z"></path>
		<path class="st5" d="M1434,945.1h1.1l6.4,35.2h-8.2l-3-18.2l-8.3,12.2l-8.4-12.2l-3,18.2h-8.2l6.4-35.2h1.2l12,18L1434,945.1z"></path>
		<path class="st5" d="M1450.1,952.6c-2.3,0-4.1-1.3-4.1-3.4s1.8-3.4,4.1-3.4s4.1,1.2,4.1,3.4S1452.4,952.6,1450.1,952.6z     M1446.5,956.7h7.3v23.6h-7.3V956.7z"></path>
		<path class="st5" d="M1475.3,967.4c0-3.4-1.1-5.3-3.8-5.3c-2.9,0-4.5,2.7-4.5,7.1v11h-7.2v-23.6h7.2v3.9c0.6-1,2.8-4.3,7-4.3    c5.7,0,8.6,3.4,8.6,10.6v13.3h-7.3L1475.3,967.4L1475.3,967.4z"></path>
		<path class="st5" d="M1491.6,980.5c-2.8,0-4.9-1.5-4.9-4.2s2.1-4.1,4.9-4.1s5,1.4,5,4.2C1496.6,979,1494.5,980.5,1491.6,980.5z"></path>
	</g>
	<g>
		<path class="st5" d="M21.4,86H9.8V45.2h11.6c17.8,0,25,9.1,25,20.4C46.4,76.8,39.1,86,21.4,86z M22,52.6h-2.5v25.8H22    c9.9,0,14.7-5.7,14.7-12.9S32,52.6,22,52.6z"></path>
		<path class="st5" d="M53.2,45.2h9.7V86h-9.7V45.2z"></path>
		<path class="st5" d="M85.2,52.2c-2.7,0-5.1,1.2-5.1,3.7c0,6.9,18.4,4.4,18.4,18.2c0,7.2-5.5,12.5-15.2,12.5    c-6.6,0-12.6-3.6-14.6-5l4.1-6.8C74,75.7,78.5,79,83.3,79c3.5,0,5.6-2,5.6-4.7c0-7.4-18.5-5.2-18.5-18.4c0-7,5.8-11.1,13.7-11.1    c6.9,0,11,2.6,12,3.3l-0.7,7.8C94,54.5,89.8,52.2,85.2,52.2z"></path>
		<path class="st5" d="M120.3,86h-9.6V52.7h-9.9l1.8-7.5h26.9v7.5h-9.1L120.3,86L120.3,86z"></path>
		<path class="st5" d="M158.3,86l-3.1-6.6H139l-3,6.6h-10.6l20.8-41.8h1.6L168.6,86H158.3z M141.8,72.5h10.6l-5.3-11.8L141.8,72.5z"></path>
		<path class="st5" d="M183,63.3V86h-9.7V44.6h1.6l25.2,23.2V45.2h9.7v41.3h-1.6L183,63.3z"></path>
		<path class="st5" d="M252,78.4l-1.8,7.6H214l21.3-33.3h-17.2l1.8-7.5H250l-21.2,33.2H252z"></path>
		<path class="st5" d="M256.9,45.2h23.5v7.5h-13.8v7.6h10.1v7.6h-10.1v10.6h19.1l-1.8,7.6h-27L256.9,45.2L256.9,45.2z"></path>
		<path class="st5" d="M300.4,63.3V86h-9.7V44.6h1.6l25.2,23.2V45.2h9.7v41.3h-1.6L300.4,63.3z"></path>
	</g>
</g>
</svg>