<svg xmlns="http://www.w3.org/2000/svg" xmlns:xlink="http://www.w3.org/1999/xlink" id="Ebene_1" data-name="Ebene 1" viewBox="0 0 104 34.53"><defs><style>.cls-1{fill:none;}.cls-2{clip-path:url(#clip-path);}.cls-3{fill:#1a171b;}</style><clipPath id="clip-path" transform="translate(0 0)"><rect class="cls-1" width="104" height="34.53"></rect></clipPath></defs><title>logo_tend</title><g class="cls-2"><path class="cls-3" d="M18.1,20.52c0-7.85,5.49-13.85,13.49-13.85a12.92,12.92,0,0,1,9,3.28c3.13,2.87,4.67,7.44,4.62,12.77H26.31c.51,3.54,2.46,5.8,5.9,5.8a4.36,4.36,0,0,0,4.36-2.62h8.15a10.66,10.66,0,0,1-4.41,6.21,13.85,13.85,0,0,1-8.2,2.41c-8.68,0-14-6.05-14-14m18.62-2.77c-.31-3.13-2.26-5.13-5-5.13-3.18,0-4.83,2-5.39,5.13Z" transform="translate(0 0)"></path><path class="cls-3" d="M76.66,20.57c0-8.21,4.72-13.9,11.49-13.9a8.19,8.19,0,0,1,7.33,3.74h.16V0H104V34.13H96v-4h-.11a8.65,8.65,0,0,1-7.74,4.36c-6.72,0-11.49-5.18-11.49-14m19.18,0c0-4.41-1.79-7.59-5.44-7.59-3.33,0-5.28,3.07-5.28,7.49s1.95,7.44,5.18,7.44c3.49,0,5.54-3,5.54-7.34" transform="translate(0 0)"></path><path class="cls-3" d="M17.17,14.65V7H0v7.63H3.49V26.91c0,5.2,2.78,7.61,8.74,7.61a20,20,0,0,0,4.67-.42l.27-.08V27.26h-.38l-.58,0-1.26,0c-1.58,0-2.55-.37-2.55-2.19V14.65Z" transform="translate(0 0)"></path><path class="cls-3" d="M75.56,28a3.5,3.5,0,0,1-2.12-.5,2.36,2.36,0,0,1-.8-2.06V16.61a13.2,13.2,0,0,0-.21-2.3,8.7,8.7,0,0,0-5-6.88,9.33,9.33,0,0,0-2.94-.72c-.32,0-.64,0-1,0a9.53,9.53,0,0,0-3.77.77A9.17,9.17,0,0,0,56.37,9.8a12,12,0,0,0-.76.94H55.5V7H47.19V34.13h8.63v-15A5.71,5.71,0,0,1,58.3,14a4.41,4.41,0,0,1,1.87-.4c2.72,0,4.11,1.89,4.11,4.67v9.25a8.68,8.68,0,0,0,.53,3.17,5.63,5.63,0,0,0,4,3.4l.63.15a13.68,13.68,0,0,0,2.64.25c.45,0,.84,0,1.19,0a17.84,17.84,0,0,0,4.09-.4V28c-.31,0-1.13.05-1.85.05" transform="translate(0 0)"></path></g></svg>